<?xml version="1.0" encoding="utf-8"?><!DOCTYPE svg PUBLIC "-//W3C//DTD SVG 1.1//EN" "http://www.w3.org/Graphics/SVG/1.1/DTD/svg11.dtd" [ <!ENTITY ns_flows "http://ns.adobe.com/Flows/1.0/"> ]><svg version="1.1" xmlns="http://www.w3.org/2000/svg" xmlns:xlink="http://www.w3.org/1999/xlink" xmlns:a="http://ns.adobe.com/AdobeSVGViewerExtensions/3.0/" x="0px" y="0px" width="88px" height="145px" viewBox="0 0.37 88 145" overflow="visible" enable-background="new 0 0.37 88 145" xml:space="preserve"><defs></defs><path d="M16.32,109.01l-0.87-0.93c3.16-1.3,5.07-3.55,5.72-6.75h-3.88c-0.74,1.24-1.52,2.23-2.32,2.98L14,103.68 c1.68-1.53,2.76-3.33,3.25-5.38l1.11,0.39c0.2,0.1,0.16,0.2-0.1,0.3c-0.13,0.42-0.31,0.85-0.53,1.27h3.49l0.44-0.24l0.87,0.88 c0.23,0.23,0.18,0.39-0.14,0.49C21.76,104.94,19.75,107.48,16.32,109.01z"/><path d="M30.85,103.78c0,2.44-1.13,4.21-3.39,5.28l-0.97-0.83c2.13-0.98,3.21-2.48,3.25-4.5v-4.89h1.02 c0.32,0.07,0.35,0.2,0.09,0.39V103.78z M25.86,104.85h-1.11v-5.52h1.07c0.32,0.03,0.34,0.16,0.05,0.39V104.85z"/><path d="M35.65,101.67l0.92-0.49c0.48,0.62,0.9,1.35,1.26,2.2l-1.01,0.49C36.42,102.99,36.04,102.26,35.65,101.67z M39.18,106.71 c-0.93,0.94-2.16,1.7-3.68,2.25l-0.63-0.93c1.48-0.49,2.65-1.15,3.49-2c0.91-0.91,1.42-2.46,1.55-4.65l1.02,0.34 c0.29,0.1,0.29,0.23,0,0.39C40.71,104.23,40.12,105.76,39.18,106.71z M33.13,102.31l0.97-0.49c0.45,0.62,0.86,1.37,1.21,2.25 l-0.97,0.54C33.95,103.69,33.55,102.93,33.13,102.31z"/><path d="M44.66,109.01l-0.88-0.93c3.17-1.3,5.07-3.55,5.72-6.75h-3.87c-0.74,1.24-1.52,2.23-2.33,2.98l-0.97-0.63 c1.68-1.53,2.76-3.33,3.25-5.38l1.12,0.39c0.19,0.1,0.16,0.2-0.1,0.3c-0.13,0.42-0.31,0.85-0.53,1.27h3.49l0.44-0.24l0.87,0.88 c0.23,0.23,0.18,0.39-0.15,0.49C50.1,104.94,48.08,107.48,44.66,109.01z"/><path d="M56.19,108.62c-1.16,0-2.02-0.28-2.57-0.83c-0.42-0.42-0.63-1.24-0.63-2.44v-6.55h1.02c0.29,0.06,0.32,0.19,0.1,0.39v6.16 c0,0.81,0.15,1.37,0.43,1.66c0.36,0.36,0.89,0.54,1.6,0.54c1.26,0,2.54-0.72,3.82-2.15l0.73,0.93 C59.3,107.85,57.8,108.62,56.19,108.62z"/><path d="M71.64,100.4c-1.13,0-2.02,0.11-2.66,0.34c-0.71,0.26-1.37,0.7-1.99,1.32c-0.61,0.62-0.92,1.41-0.92,2.39 c0,0.78,0.25,1.42,0.73,1.91c0.65,0.65,1.89,1.01,3.73,1.08l-0.39,1.08c-1.91-0.1-3.23-0.52-3.97-1.27 c-0.74-0.75-1.12-1.66-1.12-2.74c0-1.53,0.6-2.74,1.79-3.62c-1.52,0.23-3.07,0.46-4.65,0.68l-0.29-1.12 c3.16-0.23,6.34-0.62,9.54-1.17L71.64,100.4z"/><path d="M5.93,113.4h5.76v0.93H9.66v3.47h1.99v0.93H9.66v3.67h2.47v0.93H5.59v-0.93h0.92v-6.06h0.92c0.26,0.03,0.27,0.13,0.05,0.29 v5.77h1.21v-8.07H5.93V113.4z M2.45,120.59v1.66h1.65v-1.66H2.45z M1.57,118h3.34v0.93H1.57V118z M1.57,116.29h3.34v0.93H1.57 V116.29z M4.92,112.76v0.93H1.57v-0.93H4.92z M4.09,123.18H2.45v0.59H1.48v-4.11h3.58v3.96H4.09V123.18z M5.55,114.52v0.93H1.09 v-0.93H5.55z"/><path d="M22.93,116.92h-2.76v1.96h2.76V116.92z M20.17,115.99h2.76v-1.91h-2.76V115.99z M19.21,113.16h4.7v9.54 c0,0.55-0.28,0.83-0.83,0.83h-1.21l-0.15-0.93h1.07c0.1,0,0.14-0.05,0.14-0.15v-2.64h-2.76c-0.1,1.73-1.24,3.05-3.44,3.96 l-0.48-1.08c1.97-0.52,2.96-1.66,2.96-3.42V113.16z M14.99,119.85h2.13v-2.44h-2.13V119.85z M14.99,116.48h2.13v-2.1h-2.13V116.48z M14.99,120.78v0.83h-0.97v-8.17h4.07v7.34H14.99z"/><path d="M31.85,115.46v0.58h2.37v-0.58H31.85z M34.22,114.67v-0.54h-2.37v0.54H34.22z M28.55,122.2v0.49h5.57v-0.49H28.55z M28.55,120.93v0.49h5.57v-0.49H28.55z M27.58,120.15h7.51v3.57h-0.97v-0.24h-5.57v0.24h-0.97V120.15z M30.88,114.13h-3.39v-0.79 h3.39v-0.88h0.92c0.26,0.04,0.27,0.13,0.05,0.29v0.58h3.34v1.32h1.6v0.78h-1.6v1.37h-3.34v0.58h3.54v0.78h-3.54v0.58h5.09v0.78 H25.79v-0.78h5.09v-0.58h-3.54v-0.78h3.54v-0.58h-3.44v-0.78h3.44v-0.58h-4.89v-0.78h4.89V114.13z"/><path d="M40.95,116.07c-0.84,0.85-1.26,1.89-1.26,3.13c0,0.75,0.24,1.37,0.73,1.86c0.09,0.1,0.24,0.15,0.44,0.15 c0.19,0,0.4-0.11,0.63-0.34c0.74-0.75,1.29-2.75,1.65-6.01C42.29,115.05,41.57,115.45,40.95,116.07z M42.26,121.84 c-0.42,0.42-0.86,0.64-1.31,0.64c-0.52,0-0.92-0.15-1.21-0.44c-0.77-0.78-1.16-1.76-1.16-2.93c0-1.44,0.5-2.66,1.5-3.67 c1.1-1.11,2.44-1.66,4.02-1.66c1.42,0,2.54,0.41,3.34,1.22c0.91,0.91,1.36,1.99,1.36,3.23c0,1.34-0.42,2.43-1.26,3.28 c-0.55,0.55-1.39,1.09-2.52,1.61L44,122.09c1.13-0.36,2.02-0.86,2.67-1.51c0.61-0.62,0.92-1.37,0.92-2.25 c0-1.04-0.34-1.91-1.01-2.59c-0.68-0.68-1.75-1-3.2-0.93l0.87,0.44c0.39,0.16,0.39,0.34,0,0.54 C43.7,119.04,43.04,121.06,42.26,121.84z"/><path d="M56.16,118c-0.42,1.34-1.33,2.46-2.71,3.37l-0.67-0.98c1.81-1.08,2.71-2.69,2.71-4.84h-3v7.87h-1.12v-8.8h4.17v-1.71h1.07 c0.32,0.06,0.34,0.19,0.05,0.39v1.32H61v7.72c0,0.65-0.3,0.98-0.92,0.98h-1.16l-0.19-1.08h0.97c0.13,0,0.19-0.07,0.19-0.2v-6.5H56.6 c0,0.49-0.05,0.98-0.15,1.47c1.26,0.85,2.34,1.76,3.25,2.74l-0.72,1.07C57.94,119.69,57,118.75,56.16,118z"/><path d="M73.55,117.06l-0.44,0.98c-1.13-0.42-2.16-1.04-3.1-1.86l0.58-0.73C71.34,116.04,72.33,116.58,73.55,117.06z M70.79,122.39 v-1.71h-4.51v1.71H70.79z M68.42,117.26c-0.65,0.95-1.49,1.78-2.52,2.5h5.62C70.32,119.14,69.29,118.31,68.42,117.26z M63.72,117.21 c0.93-0.32,1.86-0.99,2.76-2l0.72,0.68c0.19,0.16,0.13,0.24-0.19,0.24c-1.03,1.01-1.95,1.68-2.76,2L63.72,117.21z M72.63,114.72 H64.4v1.42h-0.97v-2.35h4.51v-1.22H69c0.25,0.04,0.27,0.13,0.04,0.29v0.93h4.56v2.25h-0.97V114.72z M68.9,116.53 c1.58,1.63,3.36,2.67,5.33,3.13l-0.29,1.13c-1-0.29-1.73-0.59-2.18-0.88v3.71h-0.97v-0.29h-4.51v0.49h-0.97v-3.67 c-0.65,0.45-1.26,0.76-1.84,0.93l-0.44-1.03c2.52-0.98,4.22-2.4,5.09-4.25l1.02,0.34c0.13,0.13,0.08,0.21-0.14,0.24L68.9,116.53z"/><path d="M79.7,116.82c0.42,0,0.76,0.13,1.02,0.39c0.2,0.2,0.31,0.56,0.34,1.08c0.97-0.36,2.06-0.73,3.29-1.13l0.34,1.17 c-1.26,0.2-2.44,0.51-3.53,0.93v2.15h-0.97v-1.76c-0.97,0.45-1.6,0.83-1.89,1.13c-0.36,0.36-0.53,0.72-0.53,1.07 c0,0.2,0.1,0.39,0.29,0.59c0.23,0.22,0.66,0.34,1.31,0.34h4.07v0.93h-4.12c-1.03,0-1.76-0.21-2.18-0.64 c-0.33-0.32-0.48-0.73-0.48-1.22c0-0.52,0.21-1,0.63-1.42c0.64-0.65,1.6-1.24,2.86-1.76c-0.03-0.39-0.12-0.65-0.24-0.78 c-0.13-0.13-0.41-0.2-0.83-0.2c-0.64,0-1.63,0.59-2.95,1.76l-0.83-0.83c1.52-0.94,2.56-1.99,3.1-3.13c-0.91,0.06-1.81,0.13-2.71,0.2 l-0.19-0.98c1.16-0.03,2.26-0.08,3.29-0.15c0.16-0.39,0.35-1.04,0.58-1.96l0.92,0.24c0.32,0.13,0.32,0.26,0,0.39 c-0.13,0.43-0.27,0.85-0.44,1.27c1.17-0.1,2.28-0.23,3.34-0.39l0.14,1.03c-1.26,0.1-2.51,0.2-3.78,0.29 c-0.33,0.65-0.65,1.17-0.97,1.56C78.97,116.89,79.34,116.82,79.7,116.82z"/><path d="M9.78,126.89c0.55,0.29,1.16,0.7,1.84,1.22l-0.44,0.69c-0.71-0.52-1.32-0.93-1.84-1.22L9.78,126.89z M9.11,128.01 c0.55,0.29,1.16,0.7,1.84,1.22l-0.44,0.68c-0.71-0.52-1.32-0.93-1.84-1.22L9.11,128.01z M2.57,130.12v-1.08h6.3v1.08H2.57z M9.83,136.22v1.08H4.5c-1,0-1.7-0.2-2.08-0.59c-0.39-0.39-0.58-0.91-0.58-1.57c0-0.36,0.06-0.78,0.2-1.27l1.11,0.15 c-0.16,0.52-0.24,0.89-0.24,1.12c0,0.29,0.1,0.54,0.29,0.74c0.22,0.23,0.68,0.34,1.36,0.34H9.83z"/><path d="M18.79,135.84v1.22h1.65v-1.22H18.79z M18.79,133.88v1.17h1.65v-1.17H18.79z M18.79,131.97v1.13h1.65v-1.13H18.79z M21.02,131.19h2.28v0.78h-2.03v1.13h1.65v0.78h-1.65v1.17h1.65v0.78h-1.65v1.22h2.42v0.79h-4.89v0.49h-0.82v-5.43 c-0.26,0.36-0.58,0.69-0.97,0.98l-0.34-0.93c1.23-1.11,2.02-2.26,2.37-3.47h-1.11v1.12H17.1v-1.91h2.13 c0.13-0.52,0.24-1.08,0.34-1.66l0.97,0.25c0.1,0.1,0.06,0.2-0.1,0.29c-0.1,0.39-0.19,0.77-0.29,1.12h3.44v1.71h-0.82v-0.93h-2.81 c-0.19,0.68-0.45,1.25-0.78,1.71h1.02l0.63-1.47l0.92,0.2c0.16,0.07,0.13,0.15-0.1,0.25L21.02,131.19z M14.43,132.51v3.47h1.26 v-3.47H14.43z M12.83,128.94v-0.93h4.12v0.93h-1.7c-0.06,1.01-0.27,1.94-0.63,2.78h1.89v5.82h-0.83v-0.78h-1.26v1.27h-0.82v-4.4 c-0.19,0.32-0.4,0.62-0.63,0.88l-0.63-0.83c1.13-1.27,1.79-2.85,1.98-4.74H12.83z"/><path d="M35.26,137.5c-0.26-0.98-0.66-1.83-1.21-2.54l0.87-0.39c0.71,0.88,1.16,1.71,1.36,2.49L35.26,137.5z M32.26,132.8 c0.45,0.3,0.9,0.8,1.36,1.52l-0.92,0.54c-0.22-0.46-0.61-0.98-1.16-1.57L32.26,132.8z M31.77,134.27c0.26,0.04,0.27,0.13,0.05,0.3 v2.3c0,0.23,0.1,0.34,0.29,0.34h1.07c0.19,0,0.31-0.1,0.34-0.29l0.1-0.78l0.97,0.25l-0.19,1.03c-0.1,0.49-0.39,0.73-0.87,0.73h-1.84 c-0.55,0-0.82-0.29-0.82-0.88v-2.99H31.77z M29.16,137.55c0.23-0.81,0.37-1.74,0.43-2.79l0.97,0.1c0.06,0.03,0.03,0.11-0.1,0.25 c-0.03,1.04-0.18,1.94-0.44,2.69L29.16,137.55z M29.11,132.61c1.2-0.32,1.96-0.96,2.28-1.9l-1.31-0.54l0.34-0.83l1.16,0.44l0.1-1.18 h-2.03v-0.93h5.81l-0.1,4.2c-0.03,0.81-0.37,1.22-1.02,1.22h-1.11l-0.1-0.93h1.02c0.19,0,0.29-0.1,0.29-0.3l0.1-3.28h-1.89 l-0.15,1.57l1.16,0.63l-0.44,0.88l-0.97-0.54c-0.42,1.21-1.34,2.02-2.76,2.45L29.11,132.61z M26.3,135.2v1.86h1.65v-1.86H26.3z M25.67,132.61h2.91v0.93h-2.91V132.61z M25.67,130.95h2.91v0.93h-2.91V130.95z M25.67,127.47h2.91v0.93h-2.91V127.47z M28.77,134.42v3.76h-0.82v-0.34H26.3v0.53h-0.82v-3.96H28.77z M25.04,129.14h4.17v0.93h-4.17V129.14z"/><path d="M38.07,131.78c2.1-1.99,3.46-3.49,4.07-4.5l0.87,0.68c0.29,0.33,0.21,0.46-0.24,0.39c-0.48,0.72-1.76,2.06-3.83,4.01 c-0.13,0.13-0.19,0.24-0.19,0.34c0,0.2,0.06,0.34,0.19,0.44c1.81,1.44,3.26,2.79,4.36,4.06l-0.87,0.88 c-1.13-1.34-2.52-2.72-4.17-4.16c-0.48-0.42-0.73-0.8-0.73-1.13C37.54,132.45,37.71,132.1,38.07,131.78z"/><path d="M53.23,127.23c0.52,0.29,1.14,0.72,1.89,1.27l-0.43,0.68c-0.71-0.52-1.34-0.94-1.89-1.27L53.23,127.23z M52.26,128.21 c0.58,0.36,1.21,0.78,1.89,1.27l-0.43,0.68c-0.71-0.49-1.34-0.91-1.89-1.27L52.26,128.21z M54.39,132.61 c-1.87,0.07-3.34,0.33-4.4,0.79l-0.29-0.98c1.39-0.56,2.89-0.83,4.51-0.83L54.39,132.61z M54.63,136.67v1.08h-2.13 c-1.23,0-2.39-0.3-3.49-0.88l0.44-0.88c0.84,0.45,1.85,0.68,3.05,0.68H54.63z M50.32,130.55c-0.84,0.17-1.63,0.3-2.37,0.39 c-0.49,2.9-1.09,5.2-1.8,6.9l-1.06-0.35c0.87-2.05,1.49-4.21,1.84-6.45c-0.81,0.06-1.5,0.1-2.09,0.1l-0.19-0.98 c0.9,0,1.71-0.04,2.42-0.1c0.13-1.01,0.24-1.89,0.34-2.64l0.97,0.19c0.36,0.1,0.39,0.23,0.1,0.4c-0.1,0.39-0.22,1.04-0.38,1.95 c0.74-0.1,1.42-0.23,2.03-0.39L50.32,130.55z"/><path d="M56.43,130.95l-0.29-0.98c1.58,0,2.86-0.03,3.82-0.1c-0.32-0.91-0.55-1.76-0.67-2.54h1.06c0.29,0.07,0.33,0.19,0.1,0.39 c0.13,0.62,0.32,1.3,0.58,2.05c1.13-0.1,2.1-0.25,2.91-0.44l0.24,1.08c-0.94,0.13-1.86,0.23-2.76,0.29 c0.65,1.24,1.63,2.31,2.96,3.23l-0.73,0.88c-1.19-0.56-2.37-0.83-3.53-0.83c-1.07,0-1.81,0.21-2.23,0.64 c-0.2,0.2-0.29,0.47-0.29,0.83c0,0.33,0.14,0.64,0.44,0.93c0.45,0.45,1.52,0.68,3.2,0.68h1.7l-0.24,1.08h-1.84 c-1.68,0-2.86-0.34-3.54-1.03c-0.48-0.49-0.72-1.04-0.72-1.66c0-0.62,0.17-1.11,0.53-1.47c0.58-0.59,1.49-0.88,2.71-0.88 c1.23,0,1.94,0.07,2.13,0.19c-0.77-0.98-1.31-1.81-1.6-2.49C59.03,130.9,57.72,130.95,56.43,130.95z"/><path d="M75.9,134.71l-1.31,0.34c-0.38-2.28-1.18-4.06-2.37-5.33l1.02-0.59C74.69,130.67,75.58,132.53,75.9,134.71z M69.46,136.57 c-0.45,0.55-0.91,0.83-1.36,0.83c-0.8,0-1.4-0.47-1.79-1.42c-0.23-0.56-0.34-1.75-0.34-3.57c0-1.31,0.07-2.62,0.2-3.96l1.02,0.25 c0.39,0.1,0.41,0.26,0.05,0.49c-0.13,1.21-0.2,2.3-0.2,3.28c0,1.34,0.08,2.28,0.25,2.84c0.16,0.56,0.4,0.83,0.73,0.83 c0.36,0,0.66-0.26,0.92-0.78c0.16-0.32,0.32-0.71,0.48-1.17l0.97,0.68C70.09,135.61,69.78,136.18,69.46,136.57z"/><path d="M80.7,136.67c0-0.29-0.11-0.55-0.34-0.78c-0.23-0.23-0.49-0.34-0.77-0.34c-0.29,0-0.55,0.11-0.78,0.34 c-0.22,0.23-0.34,0.49-0.34,0.78s0.12,0.55,0.34,0.78c0.23,0.23,0.49,0.34,0.78,0.34c0.29,0,0.55-0.11,0.77-0.34 C80.58,137.22,80.7,136.96,80.7,136.67z M81.28,136.67c0,0.49-0.16,0.9-0.48,1.22c-0.32,0.32-0.73,0.49-1.21,0.49 s-0.89-0.17-1.21-0.49c-0.33-0.33-0.49-0.73-0.49-1.22c0-0.49,0.16-0.9,0.49-1.22c0.32-0.32,0.73-0.49,1.21-0.49 s0.89,0.16,1.21,0.49C81.12,135.77,81.28,136.18,81.28,136.67z"/><path fill="#9C9C9C" d="M43.44,0.37l43.45,24.11L43.44,0.37z"/><g><defs><path id="I14" d="M85.48,25.27c0.78-0.43,1.41-0.79,1.41-0.79v48.23c0,0-0.63-0.35-1.41-0.78V25.27z"/></defs><use xlink:href="#I14" overflow="visible" fill="#FFFFFF"/><clipPath id="I15"><use xlink:href="#I14" overflow="visible"/></clipPath><polyline clip-path="url(#I15)" fill="#FFFFFF" points="85.48,71.93 85.48,25.27 85.49,25.26 85.49,71.93 85.48,71.93"/><path clip-path="url(#I15)" fill="#FFFFFF" d="M85.49,71.93V25.26c0.01,0,0.02-0.01,0.02-0.01v46.7 C85.51,71.95,85.5,71.94,85.49,71.93"/><path clip-path="url(#I15)" fill="#FFFFFF" d="M85.52,71.95v-46.7c0.01-0.01,0.02-0.01,0.02-0.01v46.73 C85.53,71.96,85.52,71.95,85.52,71.95"/><path clip-path="url(#I15)" fill="#FFFFFF" d="M85.54,71.96V25.24c0.01-0.01,0.02-0.01,0.02-0.01v46.75 C85.55,71.97,85.55,71.97,85.54,71.96"/><path clip-path="url(#I15)" fill="#FFFFFF" d="M85.56,71.97V25.22c0.01,0,0.02-0.01,0.03-0.01v46.78 C85.58,71.98,85.57,71.98,85.56,71.97"/><path clip-path="url(#I15)" fill="#FFFFFF" d="M85.59,71.99V25.21c0.01,0,0.01-0.01,0.02-0.01V72 C85.6,71.99,85.6,71.99,85.59,71.99"/><path clip-path="url(#I15)" fill="#FFFFFF" d="M85.61,72V25.2c0.01-0.01,0.02-0.01,0.03-0.02v46.83 C85.63,72.01,85.62,72,85.61,72"/><path clip-path="url(#I15)" fill="#FFFFFF" d="M85.64,72.01V25.18c0.01,0,0.02-0.01,0.03-0.02v46.87 C85.66,72.03,85.65,72.03,85.64,72.01"/><path clip-path="url(#I15)" fill="#FFFFFF" d="M85.67,72.03V25.16c0.01-0.01,0.02-0.01,0.04-0.02v46.91 C85.69,72.04,85.68,72.04,85.67,72.03"/><path clip-path="url(#I15)" fill="#FFFFFF" d="M85.71,72.05V25.14c0.01,0,0.01-0.01,0.02-0.01v46.94 C85.72,72.06,85.71,72.06,85.71,72.05"/><path clip-path="url(#I15)" fill="#FFFFFF" d="M85.73,72.07V25.13c0.01-0.01,0.01-0.01,0.02-0.02v46.96 C85.74,72.07,85.74,72.07,85.73,72.07"/><path clip-path="url(#I15)" fill="#FFFFFF" d="M85.75,72.08V25.12c0.01,0,0.01,0,0.02-0.01v46.99 C85.77,72.09,85.76,72.08,85.75,72.08"/><path clip-path="url(#I15)" fill="#FFFFFF" d="M85.77,72.09V25.1c0.01,0,0.02-0.01,0.02-0.01V72.1 C85.79,72.1,85.78,72.09,85.77,72.09"/><path clip-path="url(#I15)" fill="#FFFFFF" d="M85.79,72.1V25.09c0.01-0.01,0.02-0.01,0.03-0.01v47.04 C85.81,72.12,85.8,72.11,85.79,72.1"/><path clip-path="url(#I15)" fill="#FFFFFF" d="M85.82,72.12V25.08c0.01-0.01,0.03-0.02,0.04-0.03l0,47.09 C85.85,72.13,85.83,72.13,85.82,72.12"/><path clip-path="url(#I15)" fill="#FFFFFF" d="M85.87,72.14V25.05c0.02-0.01,0.03-0.01,0.05-0.02v47.14 C85.9,72.16,85.88,72.15,85.87,72.14"/><path clip-path="url(#I15)" fill="#F7F7F7" d="M85.91,72.17V25.03c0.02-0.01,0.04-0.02,0.06-0.04V72.2 C85.95,72.19,85.93,72.18,85.91,72.17"/><path clip-path="url(#I15)" fill="#F0F0F0" d="M85.97,72.2V24.99c0.02-0.01,0.04-0.02,0.07-0.03v47.28 C86.02,72.23,86,72.21,85.97,72.2"/><path clip-path="url(#I15)" fill="#E8E8E8" d="M86.04,72.24V24.96c0.02-0.01,0.04-0.02,0.06-0.04v47.35 C86.08,72.26,86.06,72.25,86.04,72.24"/><path clip-path="url(#I15)" fill="#E0E0E0" d="M86.1,72.27V24.92c0.02-0.01,0.04-0.02,0.06-0.03v47.42 C86.14,72.29,86.12,72.28,86.1,72.27"/><path clip-path="url(#I15)" fill="#D9D9D9" d="M86.16,72.31V24.89c0.02-0.01,0.04-0.02,0.06-0.04v47.49 C86.2,72.33,86.18,72.32,86.16,72.31"/><path clip-path="url(#I15)" fill="#D1D1D1" d="M86.22,72.34V24.85c0.02-0.01,0.04-0.02,0.06-0.03v47.55 C86.26,72.36,86.24,72.35,86.22,72.34"/><path clip-path="url(#I15)" fill="#C9C9C9" d="M86.28,72.37V24.82c0.02-0.01,0.04-0.02,0.07-0.03V72.4 C86.32,72.39,86.3,72.38,86.28,72.37"/><path clip-path="url(#I15)" fill="#C2C2C2" d="M86.35,72.4V24.79c0.01-0.01,0.04-0.02,0.05-0.03v47.69 C86.39,72.43,86.36,72.42,86.35,72.4"/><path clip-path="url(#I15)" fill="#BABABA" d="M86.4,72.44V24.76c0.02-0.01,0.04-0.03,0.07-0.04v47.75 C86.44,72.46,86.42,72.45,86.4,72.44"/><path clip-path="url(#I15)" fill="#B2B2B2" d="M86.47,72.47V24.72c0.02-0.01,0.04-0.02,0.06-0.03v47.83 C86.51,72.5,86.49,72.49,86.47,72.47"/><path clip-path="url(#I15)" fill="#ABABAB" d="M86.53,72.51V24.69c0.02-0.01,0.05-0.03,0.07-0.04v47.9 C86.58,72.53,86.55,72.52,86.53,72.51"/><path clip-path="url(#I15)" fill="#A3A3A3" d="M86.6,72.55v-47.9c0.02-0.01,0.04-0.03,0.06-0.04v47.97 C86.64,72.57,86.62,72.56,86.6,72.55"/><path clip-path="url(#I15)" fill="#9C9C9C" d="M86.66,72.58V24.61c0.02-0.01,0.04-0.02,0.06-0.03v48.03 C86.7,72.6,86.68,72.59,86.66,72.58"/><path clip-path="url(#I15)" fill="#949494" d="M86.72,72.61V24.58c0.02-0.01,0.04-0.02,0.06-0.03v48.1 C86.76,72.63,86.74,72.63,86.72,72.61"/><path clip-path="url(#I15)" fill="#8C8C8C" d="M86.78,72.64v-48.1c0.02-0.01,0.04-0.02,0.05-0.03v48.16 C86.82,72.67,86.8,72.66,86.78,72.64"/><path clip-path="url(#I15)" fill="#858585" d="M86.83,72.68V24.52c0.01-0.01,0.03-0.02,0.04-0.02V72.7 C86.86,72.7,86.85,72.69,86.83,72.68"/><path clip-path="url(#I15)" fill="#7D7D7D" d="M86.87,72.7V24.5c0.01-0.01,0.02-0.01,0.02-0.01v48.23 C86.89,72.71,86.88,72.71,86.87,72.7"/><polyline clip-path="url(#I15)" fill="#757575" points="86.89,72.71 86.89,24.48 86.89,24.48 86.89,72.71 86.89,72.71"/></g><g><defs><path id="I13" d="M85.48,71.93c0.78,0.43,1.41,0.78,1.41,0.78L43.44,96.82c0,0,0-0.7,0-1.56L85.48,71.93z"/></defs><use xlink:href="#I13" overflow="visible" fill="#FFFFFF"/><clipPath id="I16"><use xlink:href="#I13" overflow="visible"/></clipPath><polyline clip-path="url(#I16)" fill="#FFFFFF" points="43.44,95.26 85.48,71.93 85.49,71.93 43.44,95.27 43.44,95.26"/><path clip-path="url(#I16)" fill="#FFFFFF" d="M43.44,95.27l42.05-23.33c0,0,0.01,0.01,0.01,0.01L43.44,95.29 C43.44,95.28,43.44,95.27,43.44,95.27"/><path clip-path="url(#I16)" fill="#FFFFFF" d="M43.44,95.29L85.5,71.94c0.01,0,0.01,0.01,0.02,0.01L43.44,95.3 C43.44,95.3,43.44,95.29,43.44,95.29"/><path clip-path="url(#I16)" fill="#FFFFFF" d="M43.44,95.3l42.08-23.34c0.01,0,0.01,0,0.02,0.01L43.44,95.32 C43.44,95.32,43.44,95.31,43.44,95.3"/><path clip-path="url(#I16)" fill="#FFFFFF" d="M43.44,95.32l42.09-23.36c0.01,0,0.01,0.01,0.01,0.01L43.44,95.34 C43.44,95.33,43.44,95.32,43.44,95.32"/><path clip-path="url(#I16)" fill="#FFFFFF" d="M43.44,95.34l42.11-23.37c0.01,0,0.01,0,0.02,0.01L43.44,95.35 C43.44,95.34,43.44,95.34,43.44,95.34"/><path clip-path="url(#I16)" fill="#F7F7F7" d="M43.44,95.35l42.13-23.37c0.01,0,0.01,0,0.02,0L43.44,95.38 C43.44,95.37,43.44,95.36,43.44,95.35"/><path clip-path="url(#I16)" fill="#F0F0F0" d="M43.44,95.38l42.15-23.39c0.01,0,0.01,0.01,0.02,0.01L43.44,95.4 C43.44,95.39,43.44,95.38,43.44,95.38"/><path clip-path="url(#I16)" fill="#E8E8E8" d="M43.44,95.4L85.61,72c0.01,0.01,0.02,0.01,0.03,0.01l-42.2,23.42 C43.44,95.42,43.44,95.41,43.44,95.4"/><path clip-path="url(#I16)" fill="#E0E0E0" d="M43.44,95.43l42.2-23.42c0,0.01,0.02,0.01,0.02,0.02L43.44,95.46 C43.44,95.45,43.44,95.45,43.44,95.43"/><path clip-path="url(#I16)" fill="#D9D9D9" d="M43.44,95.46l42.22-23.43c0.01,0,0.02,0.01,0.03,0.01L43.44,95.49 C43.44,95.48,43.44,95.47,43.44,95.46"/><path clip-path="url(#I16)" fill="#D1D1D1" d="M43.44,95.49l42.25-23.45c0.01,0.01,0.02,0.02,0.04,0.02L43.44,95.53 C43.44,95.52,43.44,95.51,43.44,95.49"/><path clip-path="url(#I16)" fill="#C9C9C9" d="M43.44,95.53l42.29-23.47c0.01,0.01,0.02,0.01,0.04,0.02L43.44,95.57 C43.44,95.56,43.44,95.54,43.44,95.53"/><path clip-path="url(#I16)" fill="#C2C2C2" d="M43.44,95.57l42.32-23.49c0.01,0.01,0.02,0.01,0.04,0.02L43.44,95.62 C43.44,95.6,43.44,95.58,43.44,95.57"/><path clip-path="url(#I16)" fill="#BABABA" d="M43.44,95.62L85.8,72.11c0.01,0.01,0.03,0.02,0.04,0.02l-42.4,23.53 C43.44,95.65,43.44,95.64,43.44,95.62"/><path clip-path="url(#I16)" fill="#B2B2B2" d="M43.44,95.66l42.4-23.53c0.02,0.01,0.03,0.01,0.04,0.02L43.44,95.71 C43.44,95.69,43.44,95.68,43.44,95.66"/><path clip-path="url(#I16)" fill="#ABABAB" d="M43.44,95.71l42.45-23.56c0.01,0.01,0.03,0.02,0.04,0.02L43.44,95.76 C43.44,95.74,43.44,95.72,43.44,95.71"/><path clip-path="url(#I16)" fill="#A3A3A3" d="M43.44,95.76l42.49-23.58c0.01,0.01,0.04,0.02,0.05,0.03L43.44,95.81 C43.44,95.79,43.44,95.78,43.44,95.76"/><path clip-path="url(#I16)" fill="#9C9C9C" d="M43.44,95.81L85.98,72.2c0.02,0.01,0.03,0.02,0.05,0.03L43.44,95.86 C43.44,95.84,43.44,95.83,43.44,95.81"/><path clip-path="url(#I16)" fill="#949494" d="M43.44,95.86l42.59-23.63c0.02,0.01,0.04,0.02,0.06,0.03L43.44,95.93 C43.44,95.91,43.44,95.89,43.44,95.86"/><path clip-path="url(#I16)" fill="#8C8C8C" d="M43.44,95.93l42.64-23.66c0.02,0.01,0.04,0.02,0.06,0.03l-42.71,23.7 C43.44,95.97,43.44,95.95,43.44,95.93"/><path clip-path="url(#I16)" fill="#858585" d="M43.44,95.99l42.71-23.7c0.02,0.02,0.04,0.03,0.07,0.04L43.44,96.07 C43.44,96.05,43.44,96.02,43.44,95.99"/><path clip-path="url(#I16)" fill="#7D7D7D" d="M43.44,96.07l42.77-23.74c0.03,0.02,0.06,0.03,0.09,0.04L43.44,96.17 C43.44,96.14,43.44,96.1,43.44,96.07"/><path clip-path="url(#I16)" fill="#757575" d="M43.44,96.17L86.3,72.38c0.04,0.02,0.08,0.05,0.11,0.07L43.44,96.3 C43.44,96.25,43.44,96.21,43.44,96.17"/><path clip-path="url(#I16)" fill="#6E6E6E" d="M43.44,96.3l42.97-23.85c0.29,0.16,0.47,0.26,0.47,0.26L43.44,96.82 C43.44,96.82,43.44,96.62,43.44,96.3"/></g><path fill="#FFFFFF" d="M43.44,1.94c13.78,7.65,28.26,15.68,42.04,23.33c0,15.29,0,31.37,0,46.66 c-13.77,7.65-28.26,15.69-42.04,23.33C29.67,87.61,15.19,79.57,1.41,71.93c0-15.29,0-31.37,0-46.66 C15.19,17.62,29.67,9.58,43.44,1.94z"/><g><defs><path id="I12" d="M43.44,95.26c0,0.86,0,1.56,0,1.56L0,72.71c0,0,0.63-0.35,1.41-0.78L43.44,95.26z"/></defs><use xlink:href="#I12" overflow="visible" fill="#FFFFFF"/><clipPath id="I17"><use xlink:href="#I12" overflow="visible"/></clipPath><polyline clip-path="url(#I17)" fill="#FFFFFF" points="1.41,71.93 43.44,95.26 43.44,95.27 1.41,71.93 1.41,71.93"/><polyline clip-path="url(#I17)" fill="#FFFFFF" points="1.41,71.93 43.44,95.27 43.44,95.28 1.4,71.94 1.41,71.93"/><path clip-path="url(#I17)" fill="#FFFFFF" d="M1.4,71.94l42.04,23.34c0,0,0,0.01,0,0.01L1.38,71.95 C1.39,71.95,1.39,71.94,1.4,71.94"/><path clip-path="url(#I17)" fill="#FFFFFF" d="M1.38,71.95l42.06,23.34c0,0,0,0.01,0,0.01L1.37,71.95 C1.38,71.95,1.38,71.95,1.38,71.95"/><path clip-path="url(#I17)" fill="#FFFFFF" d="M1.37,71.95L43.44,95.3c0,0.01,0,0.02,0,0.02L1.36,71.96 C1.36,71.96,1.37,71.95,1.37,71.95"/><polyline clip-path="url(#I17)" fill="#FFFFFF" points="1.36,71.96 43.44,95.32 43.44,95.33 1.35,71.97 1.36,71.96"/><path clip-path="url(#I17)" fill="#F7F7F7" d="M1.35,71.97l42.09,23.36c0,0.01,0,0.01,0,0.01L1.33,71.97 C1.34,71.97,1.34,71.97,1.35,71.97"/><path clip-path="url(#I17)" fill="#F0F0F0" d="M1.33,71.97l42.11,23.37c0,0,0,0,0,0.01L1.32,71.98 C1.33,71.97,1.33,71.97,1.33,71.97"/><path clip-path="url(#I17)" fill="#E8E8E8" d="M1.32,71.98l42.12,23.37c0,0.01,0,0.01,0,0.01L1.31,71.99 C1.31,71.98,1.32,71.98,1.32,71.98"/><path clip-path="url(#I17)" fill="#E0E0E0" d="M1.31,71.99l42.13,23.38c0,0.01,0,0.01,0,0.01L1.3,71.99 C1.3,71.99,1.31,71.99,1.31,71.99"/><path clip-path="url(#I17)" fill="#D9D9D9" d="M1.3,71.99l42.14,23.39c0,0.01,0,0.02,0,0.02L1.28,72 C1.29,72,1.29,71.99,1.3,71.99"/><path clip-path="url(#I17)" fill="#D1D1D1" d="M1.28,72l42.16,23.4c0,0.01,0,0.02,0,0.03L1.25,72.01 C1.26,72.01,1.27,72.01,1.28,72"/><path clip-path="url(#I17)" fill="#C9C9C9" d="M1.25,72.01l42.19,23.42c0,0.01,0,0.02,0,0.03L1.22,72.03 C1.23,72.03,1.24,72.02,1.25,72.01"/><path clip-path="url(#I17)" fill="#C2C2C2" d="M1.22,72.03l42.22,23.43c0,0.01,0,0.02,0,0.03L1.2,72.04 C1.21,72.04,1.22,72.03,1.22,72.03"/><path clip-path="url(#I17)" fill="#BABABA" d="M1.2,72.04l42.24,23.45c0,0.01,0,0.02,0,0.03L1.17,72.06 C1.18,72.06,1.19,72.05,1.2,72.04"/><path clip-path="url(#I17)" fill="#B2B2B2" d="M1.17,72.06l42.27,23.47c0,0.01,0,0.02,0,0.04L1.14,72.08 C1.15,72.07,1.16,72.07,1.17,72.06"/><path clip-path="url(#I17)" fill="#ABABAB" d="M1.14,72.08l42.3,23.48c0,0.01,0,0.02,0,0.04L1.1,72.1 C1.12,72.09,1.13,72.09,1.14,72.08"/><path clip-path="url(#I17)" fill="#A3A3A3" d="M1.1,72.1l42.34,23.5c0,0.01,0,0.02,0,0.04L1.07,72.12 C1.08,72.11,1.09,72.1,1.1,72.1"/><path clip-path="url(#I17)" fill="#9C9C9C" d="M1.07,72.12l42.37,23.52c0,0.01,0,0.03,0,0.04L1.03,72.14 C1.04,72.13,1.06,72.12,1.07,72.12"/><path clip-path="url(#I17)" fill="#949494" d="M1.03,72.14l42.41,23.54c0,0.02,0,0.03,0,0.04L0.99,72.16 C1,72.15,1.02,72.14,1.03,72.14"/><path clip-path="url(#I17)" fill="#8C8C8C" d="M0.99,72.16l42.45,23.56c0,0.02,0,0.04,0,0.05L0.95,72.19 C0.96,72.18,0.98,72.17,0.99,72.16"/><path clip-path="url(#I17)" fill="#858585" d="M0.95,72.19l42.49,23.59c0,0.02,0,0.04,0,0.05L0.9,72.22 C0.91,72.2,0.93,72.19,0.95,72.19"/><path clip-path="url(#I17)" fill="#7D7D7D" d="M0.9,72.22l42.55,23.61c0,0.03,0,0.05,0,0.07L0.83,72.25 C0.85,72.24,0.87,72.23,0.9,72.22"/><path clip-path="url(#I17)" fill="#757575" d="M0.83,72.25L43.44,95.9c0,0.04,0,0.06,0,0.09L0.75,72.29 C0.77,72.28,0.8,72.27,0.83,72.25"/><path clip-path="url(#I17)" fill="#6E6E6E" d="M0.75,72.29l42.69,23.7c0,0.49,0,0.83,0,0.83L0,72.71 C0,72.71,0.3,72.54,0.75,72.29"/></g><g><defs><path id="I11" d="M43.44,1.94c0-0.86,0-1.57,0-1.57l43.45,24.11c0,0-0.63,0.35-1.41,0.79L43.44,1.94z"/></defs><use xlink:href="#I11" overflow="visible" fill="#FFFFFF"/><clipPath id="I18"><use xlink:href="#I11" overflow="visible"/></clipPath><polyline clip-path="url(#I18)" fill="#FFFFFF" points="85.48,25.27 43.44,1.94 43.44,1.93 85.48,25.27 85.48,25.27"/><polyline clip-path="url(#I18)" fill="#FFFFFF" points="85.48,25.27 43.44,1.93 43.44,1.93 85.49,25.26 85.48,25.27"/><polyline clip-path="url(#I18)" fill="#FFFFFF" points="85.49,25.26 43.44,1.93 43.44,1.92 85.49,25.26 85.49,25.26"/><path clip-path="url(#I18)" fill="#FFFFFF" d="M85.49,25.26L43.44,1.92c0,0,0,0,0-0.01L85.49,25.26 C85.49,25.26,85.49,25.26,85.49,25.26"/><path clip-path="url(#I18)" fill="#FFFFFF" d="M85.5,25.25L43.44,1.92c0,0,0,0,0-0.01L85.5,25.25 C85.5,25.25,85.5,25.25,85.5,25.25"/><polyline clip-path="url(#I18)" fill="#FFFFFF" points="85.51,25.25 43.44,1.91 43.44,1.9 85.51,25.25 85.51,25.25"/><polyline clip-path="url(#I18)" fill="#FFFFFF" points="85.51,25.25 43.44,1.9 43.44,1.89 85.52,25.24 85.52,25.25"/><polyline clip-path="url(#I18)" fill="#FFFFFF" points="85.52,25.24 43.44,1.89 43.44,1.89 85.53,25.24 85.52,25.24"/><polyline clip-path="url(#I18)" fill="#FFFFFF" points="85.53,25.24 43.44,1.89 43.44,1.88 85.53,25.24 85.53,25.24"/><polyline clip-path="url(#I18)" fill="#FFFFFF" points="85.53,25.24 43.44,1.88 43.44,1.87 85.54,25.24 85.53,25.24"/><polyline clip-path="url(#I18)" fill="#FFFFFF" points="85.54,25.24 43.44,1.87 43.44,1.87 85.55,25.23 85.54,25.24"/><polyline clip-path="url(#I18)" fill="#FFFFFF" points="85.55,25.23 43.44,1.87 43.44,1.86 85.55,25.23 85.55,25.23"/><polyline clip-path="url(#I18)" fill="#FFFFFF" points="85.55,25.23 43.44,1.86 43.44,1.85 85.56,25.22 85.55,25.23"/><polyline clip-path="url(#I18)" fill="#FFFFFF" points="85.56,25.22 43.44,1.85 43.44,1.84 85.56,25.22 85.56,25.22"/><polyline clip-path="url(#I18)" fill="#FFFFFF" points="85.56,25.22 43.44,1.84 43.44,1.84 85.57,25.22 85.56,25.22"/><polyline clip-path="url(#I18)" fill="#FFFFFF" points="85.57,25.22 43.44,1.84 43.44,1.83 85.58,25.21 85.57,25.22"/><polyline clip-path="url(#I18)" fill="#FFFFFF" points="85.58,25.21 43.44,1.83 43.44,1.82 85.58,25.21 85.58,25.21"/><polyline clip-path="url(#I18)" fill="#FFFFFF" points="85.58,25.21 43.44,1.82 43.44,1.82 85.59,25.21 85.58,25.21"/><polyline clip-path="url(#I18)" fill="#FFFFFF" points="85.59,25.21 43.44,1.82 43.44,1.81 85.6,25.2 85.59,25.21"/><path clip-path="url(#I18)" fill="#FFFFFF" d="M85.6,25.2L43.44,1.81c0-0.01,0-0.01,0-0.02L85.61,25.2 C85.61,25.2,85.6,25.2,85.6,25.2"/><path clip-path="url(#I18)" fill="#FFFFFF" d="M85.61,25.2L43.44,1.79c0-0.01,0-0.02,0-0.02l42.19,23.42 C85.62,25.19,85.62,25.19,85.61,25.2"/><path clip-path="url(#I18)" fill="#FFFFFF" d="M85.63,25.19L43.44,1.77c0-0.01,0-0.02,0-0.02l42.21,23.42 C85.64,25.18,85.64,25.18,85.63,25.19"/><path clip-path="url(#I18)" fill="#FFFFFF" d="M85.65,25.17L43.44,1.75c0-0.01,0-0.01,0-0.02l42.22,23.43 C85.66,25.17,85.66,25.17,85.65,25.17"/><path clip-path="url(#I18)" fill="#FFFFFF" d="M85.67,25.16L43.44,1.73c0-0.01,0-0.01,0-0.02l42.24,23.44 C85.68,25.16,85.67,25.16,85.67,25.16"/><path clip-path="url(#I18)" fill="#FFFFFF" d="M85.68,25.15L43.44,1.71c0-0.01,0-0.01,0-0.02l42.26,23.45 C85.7,25.15,85.69,25.15,85.68,25.15"/><polyline clip-path="url(#I18)" fill="#FFFFFF" points="85.71,25.14 43.44,1.69 43.44,1.68 85.71,25.14 85.71,25.14"/><polyline clip-path="url(#I18)" fill="#FFFFFF" points="85.71,25.14 43.44,1.68 43.44,1.67 85.72,25.14 85.71,25.14"/><path clip-path="url(#I18)" fill="#FFFFFF" d="M85.72,25.14L43.44,1.67c0-0.01,0-0.01,0-0.01l42.29,23.47 C85.73,25.13,85.72,25.13,85.72,25.14"/><polyline clip-path="url(#I18)" fill="#FFFFFF" points="85.73,25.13 43.44,1.66 43.44,1.65 85.74,25.12 85.73,25.13"/><path clip-path="url(#I18)" fill="#FFFFFF" d="M85.74,25.12L43.44,1.65c0,0,0-0.01,0-0.01l42.31,23.48 C85.75,25.12,85.74,25.12,85.74,25.12"/><polyline clip-path="url(#I18)" fill="#FFFFFF" points="85.75,25.12 43.44,1.64 43.44,1.63 85.76,25.11 85.75,25.12"/><polyline clip-path="url(#I18)" fill="#FFFFFF" points="85.76,25.11 43.44,1.63 43.44,1.62 85.77,25.11 85.76,25.11"/><polyline clip-path="url(#I18)" fill="#FFFFFF" points="85.77,25.11 43.44,1.62 43.44,1.61 85.78,25.1 85.77,25.11"/><polyline clip-path="url(#I18)" fill="#FFFFFF" points="85.78,25.1 43.44,1.61 43.44,1.6 85.79,25.1 85.78,25.1"/><polyline clip-path="url(#I18)" fill="#FFFFFF" points="85.79,25.1 43.44,1.6 43.44,1.59 85.79,25.09 85.79,25.1"/><polyline clip-path="url(#I18)" fill="#FFFFFF" points="85.79,25.09 43.44,1.59 43.44,1.58 85.81,25.09 85.79,25.09"/><path clip-path="url(#I18)" fill="#FFFFFF" d="M85.81,25.09L43.44,1.58c0,0,0-0.01,0-0.01L85.81,25.09 C85.81,25.08,85.81,25.08,85.81,25.09"/><path clip-path="url(#I18)" fill="#FFFFFF" d="M85.81,25.08L43.44,1.56c0,0,0-0.01,0-0.01l42.38,23.52 C85.82,25.08,85.82,25.08,85.81,25.08"/><path clip-path="url(#I18)" fill="#FFFFFF" d="M85.82,25.08L43.44,1.55c0,0,0-0.01,0-0.01l42.4,23.53 C85.83,25.07,85.83,25.07,85.82,25.08"/><polyline clip-path="url(#I18)" fill="#FFFFFF" points="85.84,25.07 43.44,1.54 43.44,1.53 85.85,25.06 85.84,25.07"/><path clip-path="url(#I18)" fill="#FFFFFF" d="M85.85,25.06L43.44,1.53c0,0,0-0.01,0-0.01l42.42,23.54 C85.86,25.06,85.85,25.06,85.85,25.06"/><path clip-path="url(#I18)" fill="#FFFFFF" d="M85.86,25.06L43.44,1.52c0,0,0-0.01,0-0.01l42.43,23.54 C85.87,25.05,85.86,25.06,85.86,25.06"/><path clip-path="url(#I18)" fill="#FFFFFF" d="M85.87,25.05L43.44,1.51c0-0.01,0-0.01,0-0.01L85.87,25.05 C85.88,25.05,85.88,25.05,85.87,25.05"/><path clip-path="url(#I18)" fill="#FFFFFF" d="M85.88,25.04L43.44,1.49c0,0,0-0.01,0-0.01L85.9,25.04 C85.89,25.04,85.89,25.04,85.88,25.04"/><path clip-path="url(#I18)" fill="#FFFFFF" d="M85.9,25.04L43.44,1.48c0-0.01,0-0.01,0-0.01L85.9,25.04 C85.9,25.03,85.9,25.04,85.9,25.04"/><path clip-path="url(#I18)" fill="#FFFFFF" d="M85.91,25.03L43.44,1.47c0,0,0-0.01,0-0.01l42.48,23.57 C85.91,25.03,85.91,25.03,85.91,25.03"/><path clip-path="url(#I18)" fill="#FFFFFF" d="M85.92,25.03L43.44,1.45c0,0,0-0.01,0-0.02l42.49,23.58 C85.92,25.02,85.92,25.02,85.92,25.03"/><path clip-path="url(#I18)" fill="#FFFFFF" d="M85.93,25.02L43.44,1.44c0-0.01,0-0.02,0-0.04L85.96,25 C85.95,25.01,85.94,25.01,85.93,25.02"/><path clip-path="url(#I18)" fill="#FFFFFF" d="M85.96,25L43.44,1.4c0-0.01,0-0.02,0-0.03L86,24.98 C85.98,24.99,85.97,24.99,85.96,25"/><path clip-path="url(#I18)" fill="#FFFFFF" d="M86,24.98L43.44,1.37c0-0.01,0-0.02,0-0.04l42.58,23.63 C86.02,24.97,86.01,24.98,86,24.98"/><path clip-path="url(#I18)" fill="#FFFFFF" d="M86.02,24.96L43.44,1.33c0-0.02,0-0.05,0-0.07L86.1,24.93 C86.07,24.94,86.05,24.95,86.02,24.96"/><path clip-path="url(#I18)" fill="#FFFFFF" d="M86.1,24.93L43.44,1.26c0-0.03,0-0.06,0-0.08l42.72,23.71 C86.14,24.9,86.12,24.91,86.1,24.93"/><path clip-path="url(#I18)" fill="#FFFFFF" d="M86.17,24.89L43.44,1.18c0-0.03,0-0.05,0-0.08l42.8,23.75 C86.22,24.86,86.19,24.87,86.17,24.89"/><path clip-path="url(#I18)" fill="#FFFFFF" d="M86.24,24.85L43.44,1.09c0-0.02,0-0.05,0-0.07L86.3,24.81 C86.28,24.82,86.26,24.83,86.24,24.85"/><path clip-path="url(#I18)" fill="#FFFFFF" d="M86.3,24.81L43.44,1.02c0-0.02,0-0.05,0-0.07l42.92,23.82 C86.35,24.79,86.33,24.8,86.3,24.81"/><path clip-path="url(#I18)" fill="#FFFFFF" d="M86.36,24.77L43.44,0.95c0-0.02,0-0.05,0-0.07l42.98,23.85 C86.41,24.75,86.39,24.77,86.36,24.77"/><path clip-path="url(#I18)" fill="#F7F7F7" d="M86.42,24.74L43.44,0.89c0-0.02,0-0.04,0-0.06l43.04,23.89 C86.47,24.72,86.44,24.73,86.42,24.74"/><path clip-path="url(#I18)" fill="#F0F0F0" d="M86.48,24.71L43.44,0.82c0-0.02,0-0.04,0-0.06l43.1,23.92 C86.52,24.69,86.5,24.7,86.48,24.71"/><path clip-path="url(#I18)" fill="#E8E8E8" d="M86.54,24.68L43.44,0.76c0-0.02,0-0.04,0-0.06l43.15,23.95 C86.58,24.66,86.56,24.67,86.54,24.68"/><path clip-path="url(#I18)" fill="#E0E0E0" d="M86.59,24.65L43.44,0.7c0-0.02,0-0.04,0-0.06l43.2,23.98 C86.62,24.63,86.61,24.64,86.59,24.65"/><path clip-path="url(#I18)" fill="#D9D9D9" d="M86.64,24.62L43.44,0.65c0-0.02,0-0.04,0-0.05l43.25,24 C86.68,24.6,86.66,24.61,86.64,24.62"/><path clip-path="url(#I18)" fill="#D1D1D1" d="M86.69,24.6l-43.25-24c0-0.01,0-0.03,0-0.05l43.3,24.03 C86.72,24.58,86.71,24.59,86.69,24.6"/><path clip-path="url(#I18)" fill="#C9C9C9" d="M86.74,24.57L43.44,0.54c0-0.02,0-0.03,0-0.05l43.34,24.05 C86.76,24.56,86.75,24.56,86.74,24.57"/><path clip-path="url(#I18)" fill="#C2C2C2" d="M86.78,24.55L43.44,0.5c0-0.01,0-0.03,0-0.04l43.37,24.07 C86.8,24.53,86.79,24.54,86.78,24.55"/><path clip-path="url(#I18)" fill="#BABABA" d="M86.81,24.53L43.44,0.46c0-0.01,0-0.02,0-0.03l43.4,24.09 C86.84,24.51,86.83,24.52,86.81,24.53"/><path clip-path="url(#I18)" fill="#B2B2B2" d="M0,24.48L43.46,0l43.38,24.51L43.44,0.42c0-0.01,0-0.02,0-0.03l43.43,24.1 c-0.01,0-0.01,0.01-0.02,0.01"/><path clip-path="url(#I18)" fill="#ABABAB" d="M86.87,24.5L43.44,0.4c0-0.01,0-0.02,0-0.02l43.44,24.11 C86.88,24.49,86.88,24.49,86.87,24.5"/><path clip-path="url(#I18)" fill="#A3A3A3" d="M86.88,24.49L43.44,0.38c0,0,0-0.01,0-0.01L86.88,24.49 C86.89,24.48,86.89,24.49,86.88,24.49"/><polyline clip-path="url(#I18)" fill="#9C9C9C" points="86.89,24.48 43.44,0.37 43.44,0.37 86.89,24.48 86.89,24.48"/></g><g><defs><path id="I10" d="M1.41,71.93C0.63,72.36,0,72.71,0,72.71V24.48c0,0,0.63,0.35,1.41,0.79V71.93z"/></defs><use xlink:href="#I10" overflow="visible" fill="#FFFFFF"/><clipPath id="I19"><use xlink:href="#I10" overflow="visible"/></clipPath><polyline clip-path="url(#I19)" fill="#FFFFFF" points="1.41,25.27 1.41,71.93 1.4,71.93 1.4,25.27 1.41,25.27"/><polyline clip-path="url(#I19)" fill="#FFFFFF" points="1.4,25.27 1.4,71.93 1.39,71.94 1.39,25.25 1.4,25.27"/><path clip-path="url(#I19)" fill="#FFFFFF" d="M1.39,25.25v46.69c0,0-0.01,0.01-0.02,0.01V25.25 C1.38,25.25,1.38,25.25,1.39,25.25"/><path clip-path="url(#I19)" fill="#FFFFFF" d="M1.37,25.25v46.71c0,0-0.01,0.01-0.02,0.01V25.24 C1.36,25.24,1.37,25.24,1.37,25.25"/><path clip-path="url(#I19)" fill="#FFFFFF" d="M1.36,25.24v46.72c-0.01,0-0.01,0.01-0.02,0.01V25.23 C1.35,25.23,1.35,25.24,1.36,25.24"/><polyline clip-path="url(#I19)" fill="#FFFFFF" points="1.34,25.23 1.34,71.97 1.33,71.97 1.33,25.22 1.34,25.23"/><path clip-path="url(#I19)" fill="#F7F7F7" d="M1.33,25.22v46.75c-0.01,0.01-0.01,0.01-0.02,0.01V25.21 C1.31,25.21,1.32,25.22,1.33,25.22"/><path clip-path="url(#I19)" fill="#F0F0F0" d="M1.31,25.21v46.77c-0.01,0-0.01,0-0.02,0.01V25.2 C1.3,25.2,1.3,25.21,1.31,25.21"/><path clip-path="url(#I19)" fill="#E8E8E8" d="M1.29,25.2v46.79C1.28,72,1.27,72,1.26,72.01V25.19 C1.27,25.19,1.28,25.2,1.29,25.2"/><path clip-path="url(#I19)" fill="#E0E0E0" d="M1.26,25.19v46.82c-0.01,0-0.02,0.01-0.03,0.02V25.17 C1.24,25.17,1.25,25.18,1.26,25.19"/><path clip-path="url(#I19)" fill="#D9D9D9" d="M1.24,25.17v46.85c-0.01,0-0.02,0.01-0.03,0.01V25.15 C1.22,25.16,1.23,25.17,1.24,25.17"/><path clip-path="url(#I19)" fill="#D1D1D1" d="M1.21,25.15v46.88c-0.01,0.01-0.02,0.01-0.03,0.02V25.14 C1.19,25.14,1.2,25.15,1.21,25.15"/><path clip-path="url(#I19)" fill="#C9C9C9" d="M1.18,25.14v46.92c-0.01,0.01-0.02,0.02-0.04,0.02V25.12 C1.15,25.12,1.16,25.13,1.18,25.14"/><path clip-path="url(#I19)" fill="#C2C2C2" d="M1.14,25.12v46.96c-0.01,0.01-0.03,0.01-0.04,0.02v-47 C1.11,25.1,1.13,25.11,1.14,25.12"/><path clip-path="url(#I19)" fill="#BABABA" d="M1.1,25.1v47c-0.01,0.01-0.02,0.02-0.04,0.02V25.07 C1.08,25.08,1.09,25.09,1.1,25.1"/><path clip-path="url(#I19)" fill="#B2B2B2" d="M1.06,25.07v47.05c-0.01,0.01-0.03,0.02-0.04,0.02V25.05 C1.03,25.06,1.05,25.07,1.06,25.07"/><path clip-path="url(#I19)" fill="#ABABAB" d="M1.02,25.05v47.09C1,72.15,0.99,72.16,0.98,72.17V25.03 C0.99,25.04,1,25.04,1.02,25.05"/><path clip-path="url(#I19)" fill="#A3A3A3" d="M0.98,25.03v47.14c-0.02,0.01-0.03,0.02-0.05,0.03V25 C0.95,25.01,0.96,25.02,0.98,25.03"/><path clip-path="url(#I19)" fill="#9C9C9C" d="M0.93,25v47.19c-0.02,0.01-0.03,0.02-0.05,0.03V24.97 C0.9,24.98,0.92,24.99,0.93,25"/><path clip-path="url(#I19)" fill="#949494" d="M0.88,24.97v47.25c-0.02,0.01-0.04,0.02-0.06,0.03v-47.3 C0.85,24.96,0.87,24.96,0.88,24.97"/><path clip-path="url(#I19)" fill="#8C8C8C" d="M0.83,24.95v47.3c-0.02,0.01-0.04,0.02-0.06,0.03V24.91 C0.79,24.92,0.81,24.93,0.83,24.95"/><path clip-path="url(#I19)" fill="#858585" d="M0.77,24.91v47.37c-0.03,0.01-0.05,0.03-0.07,0.04V24.88 C0.73,24.89,0.75,24.9,0.77,24.91"/><path clip-path="url(#I19)" fill="#7D7D7D" d="M0.7,24.88v47.45c-0.03,0.01-0.06,0.03-0.08,0.04V24.83 C0.64,24.84,0.67,24.86,0.7,24.88"/><path clip-path="url(#I19)" fill="#757575" d="M0.62,24.83v47.54c-0.04,0.02-0.08,0.04-0.11,0.06V24.77 C0.54,24.78,0.58,24.81,0.62,24.83"/></g><path fill="#6E6E6E" d="M0.51,24.77v47.66C0.2,72.6,0,72.71,0,72.71V24.48C0,24.48,0.2,24.59,0.51,24.77"/><g><defs><path id="I9" d="M1.41,25.27C0.63,24.83,0,24.48,0,24.48L43.44,0.37c0,0,0,0.7,0,1.57L1.41,25.27z"/></defs><use xlink:href="#I9" overflow="visible" fill="#FFFFFF"/><clipPath id="I20"><use xlink:href="#I9" overflow="visible"/></clipPath><path clip-path="url(#I20)" fill="#FFFFFF" d="M43.44,1.94L1.41,25.27c0,0-0.01-0.01-0.02-0.01L43.44,1.92 C43.44,1.92,43.44,1.93,43.44,1.94"/><path clip-path="url(#I20)" fill="#FFFFFF" d="M43.44,1.92L1.39,25.26c-0.01-0.01-0.02-0.01-0.03-0.02L43.44,1.89 C43.44,1.9,43.44,1.91,43.44,1.92"/><path clip-path="url(#I20)" fill="#FFFFFF" d="M43.44,1.89L1.37,25.24c-0.01,0-0.02-0.01-0.03-0.01l42.1-23.37 C43.44,1.87,43.44,1.88,43.44,1.89"/><path clip-path="url(#I20)" fill="#FFFFFF" d="M43.44,1.86L1.34,25.23c-0.01-0.01-0.02-0.01-0.03-0.02L43.44,1.82 C43.44,1.83,43.44,1.84,43.44,1.86"/><path clip-path="url(#I20)" fill="#FFFFFF" d="M43.44,1.82L1.31,25.21c-0.01,0-0.02-0.01-0.02-0.01l42.16-23.4 C43.44,1.81,43.44,1.82,43.44,1.82"/><path clip-path="url(#I20)" fill="#FFFFFF" d="M43.44,1.79L1.28,25.2c-0.01,0-0.02-0.01-0.03-0.02L43.44,1.76 C43.44,1.77,43.44,1.78,43.44,1.79"/><path clip-path="url(#I20)" fill="#FFFFFF" d="M43.44,1.76L1.25,25.18c-0.01,0-0.02-0.01-0.03-0.02L43.44,1.73 C43.44,1.74,43.44,1.75,43.44,1.76"/><path clip-path="url(#I20)" fill="#FFFFFF" d="M43.44,1.73L1.22,25.16c-0.01,0-0.02-0.01-0.03-0.01L43.44,1.7 C43.44,1.71,43.44,1.72,43.44,1.73"/><path clip-path="url(#I20)" fill="#FFFFFF" d="M43.44,1.7L1.2,25.15c-0.01,0-0.02-0.01-0.03-0.01L43.44,1.67 C43.44,1.68,43.44,1.69,43.44,1.7"/><path clip-path="url(#I20)" fill="#FFFFFF" d="M43.44,1.67L1.17,25.13c-0.01,0-0.02-0.01-0.02-0.01l42.3-23.48 C43.44,1.65,43.44,1.66,43.44,1.67"/><path clip-path="url(#I20)" fill="#FFFFFF" d="M43.44,1.64L1.14,25.12c-0.01-0.01-0.02-0.01-0.03-0.02L43.44,1.61 C43.44,1.62,43.44,1.63,43.44,1.64"/><path clip-path="url(#I20)" fill="#FFFFFF" d="M43.44,1.61L1.12,25.1c-0.01,0-0.02-0.01-0.02-0.01l42.35-23.5 C43.44,1.59,43.44,1.6,43.44,1.61"/><path clip-path="url(#I20)" fill="#FFFFFF" d="M43.44,1.58L1.09,25.09c-0.01,0-0.02-0.01-0.03-0.02L43.44,1.55 C43.44,1.56,43.44,1.57,43.44,1.58"/><path clip-path="url(#I20)" fill="#FFFFFF" d="M43.44,1.55L1.06,25.07c-0.02-0.01-0.03-0.02-0.05-0.03L43.44,1.5 C43.44,1.51,43.44,1.53,43.44,1.55"/><path clip-path="url(#I20)" fill="#F7F7F7" d="M43.44,1.5L1.01,25.05C1,25.04,0.98,25.03,0.96,25.02L43.44,1.44 C43.44,1.46,43.44,1.48,43.44,1.5"/><path clip-path="url(#I20)" fill="#F0F0F0" d="M43.44,1.44L0.96,25.02c-0.02-0.01-0.04-0.03-0.06-0.04L43.44,1.37 C43.44,1.39,43.44,1.42,43.44,1.44"/><path clip-path="url(#I20)" fill="#E8E8E8" d="M43.44,1.37L0.9,24.98c-0.02-0.01-0.04-0.02-0.06-0.03L43.44,1.3 C43.44,1.32,43.44,1.34,43.44,1.37"/><path clip-path="url(#I20)" fill="#E0E0E0" d="M43.44,1.3L0.84,24.95c-0.02-0.01-0.04-0.02-0.06-0.04L43.44,1.23 C43.44,1.25,43.44,1.28,43.44,1.3"/><path clip-path="url(#I20)" fill="#D9D9D9" d="M43.44,1.23L0.77,24.91c-0.02-0.01-0.04-0.02-0.06-0.03L43.44,1.16 C43.44,1.18,43.44,1.21,43.44,1.23"/><path clip-path="url(#I20)" fill="#D1D1D1" d="M43.44,1.16L0.71,24.88c-0.02-0.01-0.04-0.02-0.06-0.03L43.44,1.09 C43.44,1.12,43.44,1.14,43.44,1.16"/><path clip-path="url(#I20)" fill="#C9C9C9" d="M43.44,1.09L0.65,24.85c-0.02-0.01-0.04-0.02-0.06-0.03L43.44,1.03 C43.44,1.05,43.44,1.07,43.44,1.09"/><path clip-path="url(#I20)" fill="#C2C2C2" d="M43.44,1.03L0.59,24.81c-0.02-0.01-0.04-0.03-0.06-0.04L43.44,0.96 C43.44,0.98,43.44,1,43.44,1.03"/><path clip-path="url(#I20)" fill="#BABABA" d="M43.44,0.96L0.53,24.78c-0.02-0.01-0.04-0.02-0.06-0.04L43.44,0.89 C43.44,0.91,43.44,0.94,43.44,0.96"/><path clip-path="url(#I20)" fill="#B2B2B2" d="M43.44,0.89L0.47,24.74c-0.02-0.01-0.04-0.02-0.06-0.03L43.44,0.82 C43.44,0.84,43.44,0.87,43.44,0.89"/><path clip-path="url(#I20)" fill="#ABABAB" d="M43.44,0.82L0.41,24.71c-0.02-0.01-0.05-0.02-0.07-0.04l43.1-23.92 C43.44,0.77,43.44,0.8,43.44,0.82"/><path clip-path="url(#I20)" fill="#A3A3A3" d="M43.44,0.75L0.34,24.67c-0.02-0.01-0.04-0.03-0.07-0.04L43.44,0.68 C43.44,0.7,43.44,0.72,43.44,0.75"/><path clip-path="url(#I20)" fill="#9C9C9C" d="M43.44,0.68L0.27,24.64c-0.02-0.01-0.05-0.03-0.06-0.04l43.23-24 C43.44,0.63,43.44,0.65,43.44,0.68"/><path clip-path="url(#I20)" fill="#949494" d="M43.44,0.61l-43.23,24c-0.02-0.01-0.05-0.02-0.06-0.04l43.3-24.03 C43.44,0.55,43.44,0.58,43.44,0.61"/><path clip-path="url(#I20)" fill="#8C8C8C" d="M43.44,0.53L0.15,24.57c-0.02-0.01-0.04-0.03-0.06-0.03L43.44,0.47 C43.44,0.49,43.44,0.51,43.44,0.53"/><path clip-path="url(#I20)" fill="#858585" d="M43.44,0.47L0.09,24.53c-0.02-0.01-0.04-0.02-0.05-0.03l43.41-24.1 C43.44,0.43,43.44,0.44,43.44,0.47"/><path clip-path="url(#I20)" fill="#7D7D7D" d="M43.44,0.41L0.04,24.51C0.02,24.5,0.01,24.49,0,24.49L43.44,0.38 C43.44,0.38,43.44,0.39,43.44,0.41"/><polyline clip-path="url(#I20)" fill="#757575" points="43.44,0.38 0,24.49 0,24.48 43.44,0.37 43.44,0.38"/></g><g><defs><path id="I8" d="M6.94,43.43c-1.56,1.5-2.83,2.71-2.83,2.71V26.68c0,0,1.27,0.7,2.83,1.57V43.43z"/></defs><use xlink:href="#I8" overflow="visible" fill="#FF0000"/><clipPath id="I21"><use xlink:href="#I8" overflow="visible"/></clipPath><path clip-path="url(#I21)" fill="#F70000" d="M6.94,28.25v15.18c-0.01,0.01-0.02,0.01-0.02,0.02V28.24 C6.92,28.24,6.93,28.25,6.94,28.25"/><path clip-path="url(#I21)" fill="#F00000" d="M6.92,28.24v15.21c-0.02,0.02-0.03,0.03-0.04,0.04V28.22 C6.89,28.22,6.9,28.23,6.92,28.24"/><path clip-path="url(#I21)" fill="#E80000" d="M6.88,28.22v15.28c-0.02,0.02-0.03,0.03-0.05,0.05V28.19 C6.84,28.2,6.86,28.21,6.88,28.22"/><path clip-path="url(#I21)" fill="#E00000" d="M6.83,28.19v15.35c-0.01,0.02-0.03,0.03-0.05,0.04V28.17 C6.79,28.17,6.81,28.18,6.83,28.19"/><path clip-path="url(#I21)" fill="#DB0000" d="M6.78,28.17v15.42c-0.01,0.02-0.03,0.03-0.05,0.04V28.14 C6.75,28.15,6.77,28.16,6.78,28.17"/><path clip-path="url(#I21)" fill="#D10000" d="M6.73,28.14v15.49c-0.02,0.02-0.03,0.04-0.05,0.05V28.11 C6.7,28.12,6.72,28.13,6.73,28.14"/><path clip-path="url(#I21)" fill="#C90000" d="M6.69,28.11v15.57c-0.02,0.02-0.04,0.04-0.06,0.06V28.08 C6.65,28.09,6.66,28.1,6.69,28.11"/><path clip-path="url(#I21)" fill="#C20000" d="M6.63,28.08v15.66c-0.02,0.02-0.04,0.04-0.06,0.05V28.04 C6.59,28.06,6.61,28.07,6.63,28.08"/><path clip-path="url(#I21)" fill="#BA0000" d="M6.57,28.04v15.74c-0.02,0.02-0.04,0.04-0.06,0.06V28.01 C6.53,28.02,6.55,28.03,6.57,28.04"/><path clip-path="url(#I21)" fill="#B20000" d="M6.51,28.01v15.83c-0.02,0.02-0.05,0.04-0.07,0.06V27.97 C6.46,27.99,6.49,28,6.51,28.01"/><path clip-path="url(#I21)" fill="#AB0000" d="M6.44,27.97v15.93c-0.03,0.03-0.05,0.05-0.08,0.08V27.93 C6.39,27.95,6.42,27.96,6.44,27.97"/><path clip-path="url(#I21)" fill="#A30000" d="M6.37,27.93v16.05c-0.03,0.03-0.05,0.05-0.08,0.07V27.89 C6.31,27.9,6.34,27.92,6.37,27.93"/><path clip-path="url(#I21)" fill="#9C0000" d="M6.29,27.89v16.17c-0.03,0.03-0.06,0.06-0.09,0.09V27.84 C6.23,27.86,6.26,27.88,6.29,27.89"/><path clip-path="url(#I21)" fill="#940000" d="M6.2,27.84v16.31c-0.03,0.03-0.07,0.06-0.1,0.1l0-16.46 C6.13,27.8,6.16,27.82,6.2,27.84"/><path clip-path="url(#I21)" fill="#8F0000" d="M6.1,27.79v16.46c-0.04,0.03-0.07,0.07-0.11,0.1V27.73 C6.02,27.75,6.06,27.76,6.1,27.79"/><path clip-path="url(#I21)" fill="#850000" d="M5.99,27.73v16.62c-0.04,0.04-0.08,0.08-0.12,0.11v-16.8 C5.91,27.68,5.95,27.7,5.99,27.73"/><path clip-path="url(#I21)" fill="#7D0000" d="M5.87,27.66v16.8c-0.04,0.04-0.08,0.08-0.12,0.12V27.59 C5.79,27.61,5.83,27.63,5.87,27.66"/><path clip-path="url(#I21)" fill="#750000" d="M5.75,27.59v16.99c-0.04,0.04-0.09,0.08-0.13,0.12V27.52 C5.66,27.54,5.7,27.57,5.75,27.59"/><path clip-path="url(#I21)" fill="#6E0000" d="M5.62,27.52V44.7c-0.05,0.04-0.09,0.09-0.13,0.13V27.45 C5.53,27.47,5.57,27.5,5.62,27.52"/><path clip-path="url(#I21)" fill="#660000" d="M5.48,27.45v17.39c-0.05,0.05-0.1,0.09-0.14,0.13v-17.6 C5.39,27.39,5.44,27.42,5.48,27.45"/><path clip-path="url(#I21)" fill="#5E0000" d="M5.34,27.37v17.6c-0.05,0.05-0.1,0.1-0.15,0.14V27.28 C5.24,27.31,5.29,27.34,5.34,27.37"/><path clip-path="url(#I21)" fill="#570000" d="M5.19,27.28v17.83c-0.06,0.05-0.11,0.11-0.16,0.15V27.19 C5.08,27.22,5.14,27.25,5.19,27.28"/><path clip-path="url(#I21)" fill="#4F0000" d="M5.03,27.19v18.07c-0.07,0.06-0.13,0.13-0.19,0.18V27.09 C4.9,27.12,4.96,27.16,5.03,27.19"/><path clip-path="url(#I21)" fill="#470000" d="M4.84,27.09v18.36c-0.45,0.44-0.73,0.7-0.73,0.7V26.68 C4.12,26.68,4.39,26.84,4.84,27.09"/></g><path fill="#FF0000" d="M80.25,43.43c-23.49,0-49.82,0-73.31,0c0-4.03,0-10,0-15.18C18.69,21.73,31.85,14.43,43.6,7.91 c11.75,6.52,24.91,13.83,36.65,20.34C80.25,33.43,80.25,39.4,80.25,43.43z"/><g><defs><path id="I7" d="M6.94,28.25c-1.56-0.87-2.83-1.57-2.83-1.57L43.6,4.77c0,0,0,1.4,0,3.13L6.94,28.25z"/></defs><use xlink:href="#I7" overflow="visible" fill="#FF0000"/><clipPath id="I22"><use xlink:href="#I7" overflow="visible"/></clipPath><path clip-path="url(#I22)" fill="#F70000" d="M43.6,7.91L6.94,28.25c-0.05-0.02-0.1-0.05-0.14-0.08L43.6,7.75 C43.6,7.8,43.6,7.86,43.6,7.91"/><path clip-path="url(#I22)" fill="#FF0000" d="M43.6,7.75L6.8,28.17c-0.09-0.05-0.17-0.1-0.26-0.15L43.6,7.46 C43.6,7.56,43.6,7.65,43.6,7.75"/><path clip-path="url(#I22)" fill="#F70000" d="M43.6,7.46L6.54,28.03c-0.06-0.03-0.12-0.06-0.17-0.1L43.6,7.27 C43.6,7.33,43.6,7.39,43.6,7.46"/><path clip-path="url(#I22)" fill="#F00000" d="M43.6,7.27L6.37,27.93c-0.04-0.02-0.08-0.04-0.12-0.07L43.6,7.13 C43.6,7.18,43.6,7.22,43.6,7.27"/><path clip-path="url(#I22)" fill="#E80000" d="M43.6,7.13L6.24,27.86c-0.03-0.02-0.06-0.03-0.1-0.05L43.6,7.02 C43.6,7.06,43.6,7.09,43.6,7.13"/><path clip-path="url(#I22)" fill="#E00000" d="M43.6,7.02L6.14,27.81c-0.03-0.02-0.06-0.03-0.09-0.05L43.6,6.92 C43.6,6.95,43.6,6.99,43.6,7.02"/><path clip-path="url(#I22)" fill="#DB0000" d="M43.6,6.92L6.05,27.76c-0.03-0.02-0.06-0.03-0.1-0.05L43.6,6.82 C43.6,6.85,43.6,6.88,43.6,6.92"/><path clip-path="url(#I22)" fill="#D10000" d="M43.6,6.82L5.96,27.71c-0.03-0.02-0.06-0.03-0.09-0.05L43.6,6.71 C43.6,6.75,43.6,6.78,43.6,6.82"/><path clip-path="url(#I22)" fill="#C90000" d="M43.6,6.71L5.86,27.66c-0.04-0.02-0.07-0.04-0.1-0.06l37.84-21 C43.6,6.63,43.6,6.67,43.6,6.71"/><path clip-path="url(#I22)" fill="#C20000" d="M43.6,6.6l-37.84,21c-0.04-0.02-0.07-0.04-0.11-0.06L43.6,6.48 C43.6,6.52,43.6,6.56,43.6,6.6"/><path clip-path="url(#I22)" fill="#BA0000" d="M43.6,6.48L5.66,27.54c-0.04-0.02-0.08-0.04-0.13-0.07L43.6,6.34 C43.6,6.39,43.6,6.44,43.6,6.48"/><path clip-path="url(#I22)" fill="#B20000" d="M43.6,6.34L5.53,27.47c-0.04-0.03-0.09-0.05-0.13-0.07L43.6,6.2 C43.6,6.25,43.6,6.29,43.6,6.34"/><path clip-path="url(#I22)" fill="#AB0000" d="M43.6,6.2L5.4,27.4c-0.05-0.03-0.09-0.05-0.14-0.08L43.6,6.04 C43.6,6.09,43.6,6.14,43.6,6.2"/><path clip-path="url(#I22)" fill="#A30000" d="M43.6,6.04L5.26,27.32c-0.05-0.03-0.1-0.05-0.14-0.08L43.6,5.88 C43.6,5.93,43.6,5.99,43.6,6.04"/><path clip-path="url(#I22)" fill="#9C0000" d="M43.6,5.88L5.11,27.24c-0.05-0.03-0.09-0.05-0.14-0.08L43.6,5.73 C43.6,5.78,43.6,5.83,43.6,5.88"/><path clip-path="url(#I22)" fill="#940000" d="M43.6,5.73L4.98,27.16c-0.04-0.02-0.09-0.05-0.13-0.07L43.6,5.59 C43.6,5.63,43.6,5.68,43.6,5.73"/><path clip-path="url(#I22)" fill="#8F0000" d="M43.6,5.59L4.85,27.09c-0.04-0.02-0.08-0.04-0.12-0.07L43.6,5.46 C43.6,5.5,43.6,5.54,43.6,5.59"/><path clip-path="url(#I22)" fill="#850000" d="M43.6,5.46L4.74,27.03c-0.04-0.02-0.07-0.04-0.11-0.06L43.6,5.34 C43.6,5.38,43.6,5.42,43.6,5.46"/><path clip-path="url(#I22)" fill="#7D0000" d="M43.6,5.34L4.63,26.97c-0.04-0.02-0.07-0.04-0.1-0.05L43.6,5.23 C43.6,5.27,43.6,5.3,43.6,5.34"/><path clip-path="url(#I22)" fill="#750000" d="M43.6,5.23L4.53,26.92c-0.03-0.02-0.06-0.04-0.09-0.05L43.6,5.14 C43.6,5.17,43.6,5.2,43.6,5.23"/><path clip-path="url(#I22)" fill="#6E0000" d="M43.6,5.14L4.44,26.87c-0.03-0.02-0.05-0.03-0.08-0.04L43.6,5.04 C43.6,5.08,43.6,5.11,43.6,5.14"/><path clip-path="url(#I22)" fill="#660000" d="M43.6,5.04L4.36,26.82c-0.03-0.01-0.05-0.03-0.07-0.04L43.6,4.96 C43.6,4.99,43.6,5.02,43.6,5.04"/><path clip-path="url(#I22)" fill="#5E0000" d="M43.6,4.96L4.29,26.78c-0.03-0.01-0.05-0.03-0.07-0.04L43.6,4.89 C43.6,4.91,43.6,4.94,43.6,4.96"/><path clip-path="url(#I22)" fill="#570000" d="M43.6,4.89L4.22,26.74c-0.02-0.01-0.04-0.02-0.06-0.03L43.6,4.83 C43.6,4.85,43.6,4.87,43.6,4.89"/><path clip-path="url(#I22)" fill="#4F0000" d="M43.6,4.83L4.17,26.71c-0.02-0.01-0.03-0.02-0.04-0.02L43.6,4.79 C43.6,4.79,43.6,4.81,43.6,4.83"/><path clip-path="url(#I22)" fill="#470000" d="M43.6,4.79L4.13,26.69c-0.01,0-0.01-0.01-0.01-0.01L43.6,4.77 C43.6,4.77,43.6,4.78,43.6,4.79"/></g><g><defs><path id="I6" d="M80.25,43.43c1.57,1.5,2.83,2.71,2.83,2.71H4.12c0,0,1.27-1.22,2.83-2.71H80.25z"/></defs><use xlink:href="#I6" overflow="visible" fill="#FF0000"/><clipPath id="I23"><use xlink:href="#I6" overflow="visible"/></clipPath><path clip-path="url(#I23)" fill="#F70000" d="M6.94,43.43h73.31c0.01,0.01,0.02,0.01,0.02,0.02H6.92 C6.92,43.45,6.93,43.44,6.94,43.43"/><path clip-path="url(#I23)" fill="#F00000" d="M6.92,43.45h73.36c0.02,0.01,0.04,0.03,0.05,0.05H6.87 C6.89,43.48,6.9,43.47,6.92,43.45"/><path clip-path="url(#I23)" fill="#E80000" d="M6.87,43.5h73.46c0.01,0.01,0.03,0.03,0.05,0.05H6.82 C6.84,43.53,6.85,43.52,6.87,43.5"/><path clip-path="url(#I23)" fill="#E00000" d="M6.82,43.55h73.56c0.01,0.02,0.03,0.03,0.04,0.05H6.77 C6.79,43.58,6.8,43.57,6.82,43.55"/><path clip-path="url(#I23)" fill="#DB0000" d="M6.77,43.59h73.65c0.02,0.02,0.04,0.03,0.05,0.05H6.72 C6.74,43.63,6.75,43.61,6.77,43.59"/><path clip-path="url(#I23)" fill="#D10000" d="M6.72,43.64h73.75c0.02,0.02,0.03,0.04,0.06,0.05H6.67 C6.69,43.68,6.7,43.66,6.72,43.64"/><path clip-path="url(#I23)" fill="#C90000" d="M6.67,43.7h73.86c0.02,0.02,0.03,0.04,0.06,0.06H6.61 C6.63,43.73,6.65,43.71,6.67,43.7"/><path clip-path="url(#I23)" fill="#C20000" d="M6.61,43.75h73.98c0.02,0.02,0.04,0.04,0.05,0.06H6.55 C6.57,43.79,6.59,43.77,6.61,43.75"/><path clip-path="url(#I23)" fill="#BA0000" d="M6.55,43.81h74.09c0.02,0.02,0.04,0.04,0.06,0.05H6.49 C6.51,43.85,6.53,43.83,6.55,43.81"/><path clip-path="url(#I23)" fill="#B20000" d="M6.49,43.86H80.7c0.03,0.03,0.05,0.05,0.08,0.07H6.41 C6.44,43.91,6.46,43.89,6.49,43.86"/><path clip-path="url(#I23)" fill="#AB0000" d="M6.41,43.94h74.37c0.02,0.03,0.05,0.05,0.08,0.08H6.33 C6.36,43.99,6.39,43.96,6.41,43.94"/><path clip-path="url(#I23)" fill="#A30000" d="M6.33,44.01h74.52c0.03,0.03,0.05,0.05,0.07,0.07H6.26 C6.28,44.06,6.31,44.04,6.33,44.01"/><path clip-path="url(#I23)" fill="#9C0000" d="M6.26,44.09h74.67c0.04,0.03,0.07,0.07,0.11,0.1H6.16 C6.19,44.15,6.23,44.12,6.26,44.09"/><path clip-path="url(#I23)" fill="#940000" d="M6.16,44.19h74.88c0.04,0.03,0.06,0.06,0.1,0.09H6.06 C6.09,44.25,6.12,44.22,6.16,44.19"/><path clip-path="url(#I23)" fill="#8F0000" d="M6.06,44.28h75.08c0.04,0.04,0.08,0.08,0.12,0.11H5.94 C5.98,44.36,6.02,44.32,6.06,44.28"/><path clip-path="url(#I23)" fill="#850000" d="M5.94,44.39h75.31c0.04,0.04,0.08,0.08,0.12,0.12l-75.55,0 C5.86,44.47,5.9,44.43,5.94,44.39"/><path clip-path="url(#I23)" fill="#7D0000" d="M5.82,44.51h75.55c0.05,0.04,0.08,0.08,0.13,0.12H5.69 C5.74,44.59,5.78,44.55,5.82,44.51"/><path clip-path="url(#I23)" fill="#750000" d="M5.69,44.63H81.5c0.04,0.04,0.08,0.08,0.13,0.13H5.56 C5.61,44.71,5.65,44.67,5.69,44.63"/><path clip-path="url(#I23)" fill="#6E0000" d="M5.56,44.76h76.07c0.05,0.04,0.09,0.09,0.14,0.13H5.43 C5.47,44.84,5.51,44.8,5.56,44.76"/><path clip-path="url(#I23)" fill="#660000" d="M5.43,44.88h76.34c0.05,0.05,0.09,0.1,0.13,0.14H5.29 C5.33,44.98,5.38,44.93,5.43,44.88"/><path clip-path="url(#I23)" fill="#5E0000" d="M5.29,45.02H81.9c0.05,0.05,0.1,0.1,0.15,0.14H5.14 C5.19,45.12,5.24,45.07,5.29,45.02"/><path clip-path="url(#I23)" fill="#570000" d="M5.14,45.16h76.92c0.06,0.06,0.11,0.11,0.16,0.16H4.98 C5.03,45.27,5.08,45.22,5.14,45.16"/><path clip-path="url(#I23)" fill="#4F0000" d="M4.98,45.32h77.24c0.06,0.06,0.13,0.12,0.19,0.18H4.79 C4.85,45.44,4.91,45.38,4.98,45.32"/><path clip-path="url(#I23)" fill="#470000" d="M4.79,45.5H82.4c0.42,0.4,0.67,0.65,0.67,0.65H4.12 C4.12,46.15,4.37,45.9,4.79,45.5"/></g><g><defs><path id="I5" d="M43.6,7.91c0-1.73,0-3.13,0-3.13l39.48,21.91c0,0-1.26,0.7-2.83,1.57L43.6,7.91z"/></defs><use xlink:href="#I5" overflow="visible" fill="#FF0000"/><clipPath id="I24"><use xlink:href="#I5" overflow="visible"/></clipPath><path clip-path="url(#I24)" fill="#F70000" d="M80.25,28.25L43.6,7.91c0-0.01,0-0.01,0-0.02l36.68,20.36 C80.26,28.25,80.26,28.25,80.25,28.25"/><path clip-path="url(#I24)" fill="#FF0000" d="M80.27,28.24L43.6,7.89c0-0.01,0-0.02,0-0.03l36.7,20.37 C80.29,28.23,80.28,28.24,80.27,28.24"/><path clip-path="url(#I24)" fill="#FD2313" d="M80.3,28.23L43.6,7.86c0-0.01,0-0.02,0-0.04l36.73,20.39 C80.32,28.22,80.31,28.22,80.3,28.23"/><path clip-path="url(#I24)" fill="#FD2F1B" d="M80.33,28.21L43.6,7.82c0-0.01,0-0.02,0-0.03l36.76,20.4 C80.35,28.2,80.34,28.2,80.33,28.21"/><path clip-path="url(#I24)" fill="#FC3C24" d="M80.36,28.19L43.6,7.79c0-0.01,0-0.02,0-0.03l36.79,20.42 C80.38,28.18,80.37,28.19,80.36,28.19"/><path clip-path="url(#I24)" fill="#FC432A" d="M80.39,28.18L43.6,7.76c0-0.01,0-0.02,0-0.04l36.82,20.44 C80.41,28.17,80.4,28.17,80.39,28.18"/><path clip-path="url(#I24)" fill="#FC4B30" d="M80.42,28.16L43.6,7.72c0-0.01,0-0.02,0-0.03l36.85,20.45 C80.44,28.15,80.43,28.16,80.42,28.16"/><path clip-path="url(#I24)" fill="#FC5336" d="M80.45,28.14L43.6,7.69c0-0.01,0-0.02,0-0.03l36.88,20.47 C80.47,28.13,80.46,28.14,80.45,28.14"/><path clip-path="url(#I24)" fill="#FC583A" d="M80.48,28.13L43.6,7.66c0-0.01,0-0.02,0-0.03L80.5,28.11 C80.5,28.12,80.49,28.12,80.48,28.13"/><path clip-path="url(#I24)" fill="#FC5F40" d="M80.5,28.11L43.6,7.62c0-0.01,0-0.02,0-0.03l36.94,20.5 C80.53,28.1,80.52,28.11,80.5,28.11"/><path clip-path="url(#I24)" fill="#FC6445" d="M80.54,28.09L43.6,7.59c0-0.01,0-0.02,0-0.03l36.96,20.52 C80.56,28.08,80.55,28.09,80.54,28.09"/><path clip-path="url(#I24)" fill="#FB6A4A" d="M80.56,28.08L43.6,7.56c0-0.01,0-0.02,0-0.03l37,20.53 C80.59,28.07,80.57,28.07,80.56,28.08"/><path clip-path="url(#I24)" fill="#FB6F4F" d="M80.59,28.06l-37-20.53c0-0.01,0-0.02,0-0.03l37.02,20.55 C80.61,28.05,80.6,28.06,80.59,28.06"/><path clip-path="url(#I24)" fill="#FB7453" d="M80.62,28.05L43.6,7.5c0-0.01,0-0.02,0-0.03l37.05,20.57 C80.64,28.04,80.63,28.04,80.62,28.05"/><path clip-path="url(#I24)" fill="#FB7958" d="M80.65,28.03L43.6,7.46c0-0.01,0-0.02,0-0.03l37.08,20.58 C80.67,28.02,80.66,28.03,80.65,28.03"/><path clip-path="url(#I24)" fill="#FB7E5D" d="M80.68,28.02L43.6,7.43c0-0.01,0-0.02,0-0.03L80.71,28 C80.7,28.01,80.69,28.01,80.68,28.02"/><path clip-path="url(#I24)" fill="#FB805F" d="M80.71,28L43.6,7.4c0-0.01,0-0.03,0-0.04l37.15,20.62 C80.73,27.98,80.72,27.99,80.71,28"/><path clip-path="url(#I24)" fill="#FB8665" d="M80.74,27.98L43.6,7.36c0-0.02,0-0.03,0-0.04l37.19,20.64 C80.77,27.97,80.76,27.97,80.74,27.98"/><path clip-path="url(#I24)" fill="#FB8B6A" d="M80.78,27.96L43.6,7.32c0-0.01,0-0.03,0-0.04l37.22,20.66 C80.81,27.94,80.8,27.95,80.78,27.96"/><path clip-path="url(#I24)" fill="#FB8D6C" d="M80.82,27.94L43.6,7.28c0-0.01,0-0.03,0-0.04l37.26,20.68 C80.84,27.92,80.83,27.93,80.82,27.94"/><path clip-path="url(#I24)" fill="#FC9272" d="M80.86,27.92L43.6,7.24c0-0.01,0-0.03,0-0.04l37.3,20.7 C80.88,27.9,80.87,27.91,80.86,27.92"/><path clip-path="url(#I24)" fill="#FB9575" d="M80.89,27.9L43.6,7.2c0-0.01,0-0.03,0-0.04l37.33,20.72 C80.92,27.88,80.91,27.89,80.89,27.9"/><path clip-path="url(#I24)" fill="#FB9A7A" d="M80.93,27.88L43.6,7.16c0-0.04,0-0.08,0-0.12l37.44,20.78 C81,27.84,80.97,27.86,80.93,27.88"/><path clip-path="url(#I24)" fill="#FC9D7E" d="M81.04,27.82L43.6,7.04c0-0.04,0-0.08,0-0.12l37.54,20.84 C81.11,27.78,81.08,27.8,81.04,27.82"/><path clip-path="url(#I24)" fill="#FC9F80" d="M81.14,27.76L43.6,6.92c0,0,0,0,0-0.01L81.14,27.76 C81.14,27.76,81.14,27.76,81.14,27.76"/><path clip-path="url(#I24)" fill="#FC9D7E" d="M81.15,27.75L43.6,6.91c0-0.04,0-0.08,0-0.11l37.65,20.9 C81.22,27.72,81.19,27.74,81.15,27.75"/><path clip-path="url(#I24)" fill="#FB9A7A" d="M81.25,27.7L43.6,6.8c0-0.04,0-0.08,0-0.11l37.76,20.96 C81.32,27.66,81.29,27.68,81.25,27.7"/><path clip-path="url(#I24)" fill="#FB9575" d="M81.35,27.64L43.6,6.69c0-0.01,0-0.03,0-0.05l37.8,20.98 C81.38,27.63,81.37,27.63,81.35,27.64"/><path clip-path="url(#I24)" fill="#FC9272" d="M81.39,27.62L43.6,6.64c0-0.02,0-0.03,0-0.05l37.84,21 C81.42,27.6,81.4,27.61,81.39,27.62"/><path clip-path="url(#I24)" fill="#FB8D6C" d="M81.44,27.6l-37.84-21c0-0.02,0-0.03,0-0.05l37.88,21.02 C81.47,27.58,81.45,27.59,81.44,27.6"/><path clip-path="url(#I24)" fill="#FB8B6A" d="M81.48,27.57L43.6,6.55c0-0.02,0-0.03,0-0.05l37.92,21.05 C81.5,27.56,81.49,27.57,81.48,27.57"/><path clip-path="url(#I24)" fill="#FB8665" d="M81.52,27.55L43.6,6.5c0-0.02,0-0.03,0-0.05l37.97,21.07 C81.54,27.54,81.53,27.54,81.52,27.55"/><path clip-path="url(#I24)" fill="#FB805F" d="M81.56,27.53L43.6,6.46c0-0.01,0-0.03,0-0.04l38,21.09 C81.58,27.51,81.57,27.52,81.56,27.53"/><path clip-path="url(#I24)" fill="#FB7E5D" d="M81.6,27.51l-38-21.09c0-0.01,0-0.02,0-0.04l38.03,21.11 C81.62,27.5,81.61,27.5,81.6,27.51"/><path clip-path="url(#I24)" fill="#FB7958" d="M81.63,27.49L43.6,6.38c0-0.01,0-0.03,0-0.04l38.07,21.12 C81.65,27.47,81.64,27.48,81.63,27.49"/><path clip-path="url(#I24)" fill="#FB7453" d="M81.66,27.47L43.6,6.34c0-0.02,0-0.03,0-0.04l38.1,21.15 C81.69,27.46,81.68,27.46,81.66,27.47"/><path clip-path="url(#I24)" fill="#FB6F4F" d="M81.7,27.45L43.6,6.3c0-0.01,0-0.02,0-0.04l38.13,21.17 C81.72,27.44,81.71,27.45,81.7,27.45"/><path clip-path="url(#I24)" fill="#FB6A4A" d="M81.73,27.43L43.6,6.27c0-0.01,0-0.03,0-0.04l38.17,21.19 C81.75,27.42,81.74,27.42,81.73,27.43"/><path clip-path="url(#I24)" fill="#FC6445" d="M81.77,27.41L43.6,6.22c0-0.02,0-0.03,0-0.04l38.21,21.21 C81.8,27.4,81.78,27.4,81.77,27.41"/><path clip-path="url(#I24)" fill="#FC5F40" d="M81.81,27.39L43.6,6.18c0-0.01,0-0.03,0-0.04l38.25,21.23 C81.84,27.38,81.82,27.38,81.81,27.39"/><path clip-path="url(#I24)" fill="#FC583A" d="M81.84,27.37L43.6,6.14c0-0.01,0-0.03,0-0.04l38.28,21.25 C81.87,27.35,81.86,27.36,81.84,27.37"/><path clip-path="url(#I24)" fill="#FC5336" d="M81.88,27.35L43.6,6.09c0-0.01,0-0.03,0-0.04l38.33,21.28 C81.91,27.33,81.9,27.34,81.88,27.35"/><path clip-path="url(#I24)" fill="#FC4B30" d="M81.93,27.33L43.6,6.05c0-0.02,0-0.04,0-0.06l38.38,21.3 C81.96,27.3,81.95,27.31,81.93,27.33"/><path clip-path="url(#I24)" fill="#FC432A" d="M81.98,27.29L43.6,5.99c0-0.02,0-0.04,0-0.06l38.43,21.33 C82.01,27.28,82,27.29,81.98,27.29"/><path clip-path="url(#I24)" fill="#FC3C24" d="M82.03,27.27L43.6,5.94c0-0.02,0-0.04,0-0.06l38.48,21.36 C82.06,27.25,82.04,27.26,82.03,27.27"/><path clip-path="url(#I24)" fill="#FD2F1B" d="M82.08,27.24L43.6,5.88c0-0.03,0-0.05,0-0.08l38.55,21.4 C82.12,27.21,82.11,27.23,82.08,27.24"/><path clip-path="url(#I24)" fill="#FD2313" d="M82.15,27.2L43.6,5.8c0-0.03,0-0.06,0-0.08l38.63,21.44 C82.21,27.17,82.18,27.18,82.15,27.2"/><path clip-path="url(#I24)" fill="#FF0000" d="M82.23,27.16L43.6,5.72c0-0.04,0-0.07,0-0.11L82.32,27.1 C82.29,27.12,82.26,27.14,82.23,27.16"/><path clip-path="url(#I24)" fill="#F70000" d="M82.32,27.1L43.6,5.61c0-0.04,0-0.08,0-0.12l38.83,21.55 C82.39,27.06,82.36,27.08,82.32,27.1"/><path clip-path="url(#I24)" fill="#F00000" d="M82.43,27.04L43.6,5.49c0-0.04,0-0.08,0-0.12l38.95,21.62 C82.51,27,82.47,27.02,82.43,27.04"/><path clip-path="url(#I24)" fill="#E80000" d="M82.54,26.98L43.6,5.37c0-0.04,0-0.07,0-0.11l39.04,21.67 C82.6,26.95,82.58,26.96,82.54,26.98"/><path clip-path="url(#I24)" fill="#E00000" d="M82.64,26.93L43.6,5.26c0-0.03,0-0.06,0-0.09l39.12,21.71 C82.7,26.9,82.67,26.91,82.64,26.93"/><path clip-path="url(#I24)" fill="#DB0000" d="M82.72,26.88L43.6,5.17c0-0.03,0-0.05,0-0.08l39.19,21.75 C82.77,26.86,82.75,26.87,82.72,26.88"/><path clip-path="url(#I24)" fill="#D10000" d="M82.79,26.84L43.6,5.09c0-0.02,0-0.04,0-0.06l39.25,21.78 C82.83,26.82,82.81,26.83,82.79,26.84"/><path clip-path="url(#I24)" fill="#C90000" d="M82.85,26.81L43.6,5.03c0-0.02,0-0.04,0-0.05l39.3,21.81 C82.88,26.79,82.86,26.8,82.85,26.81"/><path clip-path="url(#I24)" fill="#C20000" d="M82.9,26.79L43.6,4.98c0-0.02,0-0.04,0-0.05l39.34,21.84 C82.93,26.77,82.9,26.78,82.9,26.79"/><path clip-path="url(#I24)" fill="#BA0000" d="M82.94,26.76L43.6,4.93c0-0.01,0-0.03,0-0.04l39.37,21.86 C82.96,26.75,82.95,26.76,82.94,26.76"/><path clip-path="url(#I24)" fill="#B20000" d="M82.97,26.74L43.6,4.89c0-0.01,0-0.02,0-0.03l39.41,21.87 C82.99,26.73,82.98,26.74,82.97,26.74"/><path clip-path="url(#I24)" fill="#AB0000" d="M83.01,26.73L43.6,4.86c0-0.01,0-0.02,0-0.03l39.43,21.89 C83.02,26.72,83.01,26.72,83.01,26.73"/><path clip-path="url(#I24)" fill="#A30000" d="M83.03,26.71L43.6,4.83c0-0.01,0-0.02,0-0.02l39.45,21.9 C83.04,26.7,83.03,26.71,83.03,26.71"/><path clip-path="url(#I24)" fill="#9C0000" d="M83.05,26.7L43.6,4.81c0-0.01,0-0.01,0-0.02l39.46,21.91 C83.06,26.69,83.05,26.7,83.05,26.7"/><polyline clip-path="url(#I24)" fill="#940000" points="83.06,26.69 43.6,4.79 43.6,4.78 83.07,26.69 83.06,26.69"/><polyline clip-path="url(#I24)" fill="#8F0000" points="83.07,26.69 43.6,4.78 43.6,4.78 83.08,26.69 83.07,26.69"/><polyline clip-path="url(#I24)" fill="#850000" points="83.08,26.69 43.6,4.77 43.6,4.77 83.08,26.68 83.08,26.69"/></g><g><defs><path id="I4" d="M80.25,28.25c1.57-0.87,2.83-1.57,2.83-1.57v19.46c0,0-1.26-1.22-2.83-2.71V28.25z"/></defs><use xlink:href="#I4" overflow="visible" fill="#FF0000"/><clipPath id="I25"><use xlink:href="#I4" overflow="visible"/></clipPath><path clip-path="url(#I25)" fill="#F70000" d="M80.25,43.43V28.25c0.01,0,0.02-0.01,0.03-0.01v15.22 C80.27,43.45,80.26,43.44,80.25,43.43"/><path clip-path="url(#I25)" fill="#FF0000" d="M80.28,43.46V28.24c0.02-0.01,0.03-0.01,0.04-0.02V43.5 C80.3,43.48,80.29,43.47,80.28,43.46"/><path clip-path="url(#I25)" fill="#FD2313" d="M80.32,43.5V28.22c0.02-0.01,0.03-0.02,0.04-0.03v15.35 C80.35,43.52,80.34,43.51,80.32,43.5"/><path clip-path="url(#I25)" fill="#FD2F1B" d="M80.36,43.54V28.19c0.01-0.01,0.03-0.01,0.04-0.02v15.41 C80.39,43.57,80.38,43.55,80.36,43.54"/><path clip-path="url(#I25)" fill="#FC3C24" d="M80.4,43.58V28.17c0.02-0.01,0.03-0.02,0.04-0.03v15.47 C80.43,43.61,80.42,43.59,80.4,43.58"/><path clip-path="url(#I25)" fill="#FC432A" d="M80.45,43.62V28.14c0.02-0.01,0.03-0.02,0.04-0.02v15.54 C80.48,43.64,80.46,43.63,80.45,43.62"/><path clip-path="url(#I25)" fill="#FC4B30" d="M80.49,43.66V28.12c0.02-0.01,0.03-0.02,0.05-0.03v15.61 C80.52,43.69,80.5,43.68,80.49,43.66"/><path clip-path="url(#I25)" fill="#FC5336" d="M80.54,43.71V28.09c0.02-0.01,0.03-0.02,0.04-0.03v15.69 C80.57,43.74,80.56,43.72,80.54,43.71"/><path clip-path="url(#I25)" fill="#FC583A" d="M80.59,43.76V28.06c0.02-0.01,0.03-0.02,0.05-0.03V43.8 C80.62,43.79,80.61,43.77,80.59,43.76"/><path clip-path="url(#I25)" fill="#FC5F40" d="M80.64,43.8V28.04c0.01-0.01,0.03-0.02,0.05-0.03v15.84 C80.67,43.84,80.65,43.82,80.64,43.8"/><path clip-path="url(#I25)" fill="#FC6445" d="M80.69,43.85V28.01c0.03-0.01,0.05-0.03,0.08-0.04v15.96 C80.74,43.9,80.72,43.88,80.69,43.85"/><path clip-path="url(#I25)" fill="#FB6A4A" d="M80.77,43.93V27.97c0.03-0.02,0.06-0.04,0.09-0.05v16.1 C80.83,43.99,80.8,43.96,80.77,43.93"/><path clip-path="url(#I25)" fill="#FB6F4F" d="M80.86,44.02v-16.1c0.11-0.06,0.21-0.12,0.31-0.17v16.57 C81.07,44.22,80.97,44.12,80.86,44.02"/><path clip-path="url(#I25)" fill="#FB6A4A" d="M81.17,44.31V27.75c0.02-0.02,0.05-0.03,0.08-0.05v16.69 C81.22,44.37,81.2,44.34,81.17,44.31"/><path clip-path="url(#I25)" fill="#FC6445" d="M81.25,44.39V27.7c0.02-0.02,0.05-0.03,0.08-0.04v16.81 C81.3,44.44,81.27,44.41,81.25,44.39"/><path clip-path="url(#I25)" fill="#FC5F40" d="M81.33,44.46V27.66c0.02-0.01,0.04-0.02,0.07-0.04v16.9 C81.37,44.5,81.35,44.48,81.33,44.46"/><path clip-path="url(#I25)" fill="#FC583A" d="M81.39,44.52v-16.9c0.01-0.01,0.03-0.02,0.05-0.03v16.99 C81.42,44.56,81.4,44.54,81.39,44.52"/><path clip-path="url(#I25)" fill="#FC5336" d="M81.45,44.58V27.59c0.01-0.01,0.03-0.02,0.05-0.03v17.07 C81.48,44.61,81.46,44.59,81.45,44.58"/><path clip-path="url(#I25)" fill="#FC4B30" d="M81.5,44.63V27.56c0.02-0.01,0.03-0.02,0.06-0.03v17.15 C81.53,44.67,81.52,44.65,81.5,44.63"/><path clip-path="url(#I25)" fill="#FC432A" d="M81.56,44.68V27.53c0.01-0.01,0.03-0.02,0.05-0.03v17.23 C81.59,44.72,81.57,44.7,81.56,44.68"/><path clip-path="url(#I25)" fill="#FC3C24" d="M81.61,44.74V27.5c0.02-0.01,0.04-0.02,0.05-0.03v17.32 C81.64,44.77,81.62,44.75,81.61,44.74"/><path clip-path="url(#I25)" fill="#FD2F1B" d="M81.66,44.79V27.47c0.02-0.01,0.04-0.02,0.05-0.03v17.4 C81.7,44.82,81.69,44.8,81.66,44.79"/><path clip-path="url(#I25)" fill="#FD2313" d="M81.72,44.84v-17.4c0.02-0.01,0.04-0.02,0.06-0.04v17.5 C81.76,44.88,81.74,44.86,81.72,44.84"/><path clip-path="url(#I25)" fill="#FF0000" d="M81.78,44.9V27.4c0.03-0.01,0.05-0.02,0.07-0.04v17.59 C81.83,44.94,81.8,44.92,81.78,44.9"/><path clip-path="url(#I25)" fill="#F70000" d="M81.84,44.96V27.37c0.03-0.01,0.05-0.03,0.07-0.04v17.7 C81.89,45,81.87,44.99,81.84,44.96"/><path clip-path="url(#I25)" fill="#F00000" d="M81.91,45.03v-17.7c0.04-0.02,0.06-0.03,0.09-0.05v17.83 C81.97,45.08,81.95,45.06,81.91,45.03"/><path clip-path="url(#I25)" fill="#E80000" d="M82,45.11V27.28c0.03-0.02,0.06-0.04,0.09-0.05V45.2 C82.06,45.17,82.03,45.14,82,45.11"/><path clip-path="url(#I25)" fill="#E00000" d="M82.09,45.2V27.23c0.03-0.02,0.08-0.04,0.11-0.06v18.14 C82.17,45.27,82.12,45.23,82.09,45.2"/><path clip-path="url(#I25)" fill="#DB0000" d="M82.21,45.31V27.17c0.04-0.02,0.08-0.05,0.12-0.07v18.32 C82.29,45.39,82.25,45.35,82.21,45.31"/><path clip-path="url(#I25)" fill="#D10000" d="M82.33,45.43V27.1c0.04-0.03,0.08-0.05,0.12-0.07v18.51 C82.41,45.5,82.37,45.46,82.33,45.43"/><path clip-path="url(#I25)" fill="#C90000" d="M82.45,45.54V27.03c0.03-0.02,0.07-0.04,0.11-0.06v18.67 C82.52,45.61,82.48,45.58,82.45,45.54"/><path clip-path="url(#I25)" fill="#C20000" d="M82.56,45.65V26.98c0.03-0.02,0.06-0.04,0.09-0.06v18.81 C82.62,45.71,82.59,45.68,82.56,45.65"/><path clip-path="url(#I25)" fill="#BA0000" d="M82.65,45.74V26.92c0.03-0.01,0.06-0.03,0.08-0.04v18.94 C82.7,45.79,82.68,45.76,82.65,45.74"/><path clip-path="url(#I25)" fill="#B20000" d="M82.73,45.81V26.88c0.02-0.01,0.04-0.02,0.07-0.03v19.04 C82.77,45.86,82.75,45.83,82.73,45.81"/><path clip-path="url(#I25)" fill="#AB0000" d="M82.8,45.88V26.84c0.02-0.01,0.04-0.03,0.06-0.04v19.13 C82.84,45.92,82.82,45.9,82.8,45.88"/><path clip-path="url(#I25)" fill="#A30000" d="M82.86,45.93V26.81c0.02-0.01,0.03-0.02,0.05-0.03v19.21 C82.89,45.97,82.88,45.95,82.86,45.93"/><path clip-path="url(#I25)" fill="#9C0000" d="M82.9,45.99V26.78c0.02-0.01,0.03-0.02,0.05-0.03v19.27 C82.94,46.01,82.92,46,82.9,45.99"/><path clip-path="url(#I25)" fill="#940000" d="M82.95,46.03V26.75c0.01-0.01,0.02-0.01,0.04-0.02v19.33 C82.97,46.05,82.96,46.04,82.95,46.03"/><path clip-path="url(#I25)" fill="#8F0000" d="M82.99,46.06V26.73c0.01,0,0.02-0.01,0.03-0.02v19.37 C83.01,46.08,83,46.07,82.99,46.06"/><path clip-path="url(#I25)" fill="#850000" d="M83.02,46.09V26.72c0.01,0,0.02-0.01,0.03-0.01v19.41 C83.04,46.11,83.03,46.1,83.02,46.09"/><path clip-path="url(#I25)" fill="#7D0000" d="M83.04,46.12V26.7c0.01,0,0.01-0.01,0.02-0.01v19.44 C83.06,46.13,83.05,46.12,83.04,46.12"/><path clip-path="url(#I25)" fill="#750000" d="M83.06,46.13V26.69c0,0,0.01-0.01,0.01-0.01v19.46 C83.07,46.14,83.07,46.14,83.06,46.13"/><polyline clip-path="url(#I25)" fill="#6E0000" points="83.07,46.15 83.07,26.69 83.08,26.68 83.08,46.15 83.07,46.15"/></g><path fill="#FF0000" d="M14.57,73.22c15.78,0,42.1,0,57.88,0c-4.03,2.24-17.19,9.54-28.93,16.07C31.77,82.77,18.6,75.46,14.57,73.22 z"/><g><defs><path id="I3" d="M72.45,73.22c5.82-1.5,10.54-2.71,10.54-2.71L43.52,92.43c0,0,0-1.41,0-3.13L72.45,73.22z"/></defs><use xlink:href="#I3" overflow="visible" fill="#FF0000"/><clipPath id="I26"><use xlink:href="#I3" overflow="visible"/></clipPath><path clip-path="url(#I26)" fill="#F70000" d="M43.52,89.29l28.93-16.07c0.06-0.02,0.12-0.03,0.18-0.04L43.52,89.34 C43.52,89.32,43.52,89.3,43.52,89.29"/><path clip-path="url(#I26)" fill="#F00000" d="M43.52,89.34l29.12-16.16c0.14-0.04,0.27-0.07,0.41-0.1L43.52,89.46 C43.52,89.42,43.52,89.38,43.52,89.34"/><path clip-path="url(#I26)" fill="#E80000" d="M43.52,89.46l29.53-16.39c0.12-0.04,0.25-0.07,0.38-0.1l-29.9,16.6 C43.52,89.53,43.52,89.5,43.52,89.46"/><path clip-path="url(#I26)" fill="#E00000" d="M43.52,89.58l29.9-16.6c0.1-0.03,0.21-0.06,0.31-0.08L43.52,89.67 C43.52,89.63,43.52,89.6,43.52,89.58"/><path clip-path="url(#I26)" fill="#DB0000" d="M43.52,89.67L73.73,72.9c0.1-0.03,0.21-0.05,0.31-0.08L43.52,89.76 C43.52,89.73,43.52,89.7,43.52,89.67"/><path clip-path="url(#I26)" fill="#D10000" d="M43.52,89.76l30.53-16.94c0.11-0.03,0.21-0.06,0.31-0.08L43.52,89.86 C43.52,89.82,43.52,89.79,43.52,89.76"/><path clip-path="url(#I26)" fill="#C90000" d="M43.52,89.86l30.84-17.12c0.1-0.03,0.21-0.05,0.31-0.08L43.52,89.94 C43.52,89.91,43.52,89.88,43.52,89.86"/><path clip-path="url(#I26)" fill="#C20000" d="M43.52,89.94l31.16-17.29c0.1-0.03,0.21-0.05,0.31-0.08L43.52,90.04 C43.52,90.01,43.52,89.98,43.52,89.94"/><path clip-path="url(#I26)" fill="#BA0000" d="M43.52,90.04l31.46-17.46c0.12-0.03,0.24-0.07,0.36-0.1L43.52,90.14 C43.52,90.11,43.52,90.07,43.52,90.04"/><path clip-path="url(#I26)" fill="#B20000" d="M43.52,90.14l31.82-17.67c0.12-0.03,0.24-0.06,0.36-0.09L43.52,90.25 C43.52,90.22,43.52,90.18,43.52,90.14"/><path clip-path="url(#I26)" fill="#AB0000" d="M43.52,90.25L75.7,72.39c0.13-0.03,0.27-0.07,0.41-0.11L43.52,90.38 C43.52,90.34,43.52,90.29,43.52,90.25"/><path clip-path="url(#I26)" fill="#A30000" d="M43.52,90.38l32.59-18.09c0.15-0.04,0.29-0.07,0.43-0.11L43.52,90.5 C43.52,90.46,43.52,90.42,43.52,90.38"/><path clip-path="url(#I26)" fill="#9C0000" d="M43.52,90.5l33.02-18.33c0.16-0.04,0.33-0.08,0.49-0.13L43.52,90.65 C43.52,90.6,43.52,90.55,43.52,90.5"/><path clip-path="url(#I26)" fill="#940000" d="M43.52,90.65l33.51-18.61c0.18-0.04,0.34-0.08,0.51-0.13L43.52,90.8 C43.52,90.75,43.52,90.7,43.52,90.65"/><path clip-path="url(#I26)" fill="#8F0000" d="M43.52,90.8l34.03-18.89c0.18-0.04,0.36-0.09,0.53-0.13L43.52,90.96 C43.52,90.91,43.52,90.86,43.52,90.8"/><path clip-path="url(#I26)" fill="#850000" d="M43.52,90.96l34.55-19.18c0.18-0.05,0.35-0.09,0.52-0.13L43.52,91.12 C43.52,91.06,43.52,91.01,43.52,90.96"/><path clip-path="url(#I26)" fill="#7D0000" d="M43.52,91.12l35.08-19.48c0.18-0.04,0.35-0.09,0.52-0.13l-35.6,19.75 C43.52,91.22,43.52,91.16,43.52,91.12"/><path clip-path="url(#I26)" fill="#750000" d="M43.52,91.27l35.6-19.75c0.17-0.05,0.34-0.09,0.51-0.13l-36.1,20.04 C43.52,91.37,43.52,91.32,43.52,91.27"/><path clip-path="url(#I26)" fill="#6E0000" d="M43.52,91.42l36.1-20.04c0.17-0.04,0.34-0.09,0.5-0.13l-36.6,20.31 C43.52,91.52,43.52,91.47,43.52,91.42"/><path clip-path="url(#I26)" fill="#660000" d="M43.52,91.56l36.6-20.31c0.16-0.04,0.33-0.08,0.48-0.12L43.52,91.71 C43.52,91.66,43.52,91.62,43.52,91.56"/><path clip-path="url(#I26)" fill="#5E0000" d="M43.52,91.71L80.6,71.13c0.17-0.04,0.33-0.08,0.48-0.13L43.52,91.86 C43.52,91.8,43.52,91.76,43.52,91.71"/><path clip-path="url(#I26)" fill="#570000" d="M43.52,91.86L81.08,71c0.18-0.04,0.34-0.09,0.49-0.13L43.52,92 C43.52,91.96,43.52,91.9,43.52,91.86"/><path clip-path="url(#I26)" fill="#4F0000" d="M43.52,92l38.06-21.13c0.19-0.05,0.37-0.09,0.52-0.13L43.52,92.16 C43.52,92.11,43.52,92.06,43.52,92"/><path clip-path="url(#I26)" fill="#470000" d="M43.52,92.16l38.58-21.42c0.58-0.15,0.9-0.23,0.9-0.23L43.52,92.43 C43.52,92.43,43.52,92.32,43.52,92.16"/></g><g><defs><path id="I2" d="M14.57,73.22c-5.82-1.5-10.54-2.71-10.54-2.71h78.96c0,0-4.72,1.21-10.54,2.71H14.57z"/></defs><use xlink:href="#I2" overflow="visible" fill="#FF0000"/><clipPath id="I27"><use xlink:href="#I2" overflow="visible"/></clipPath><path clip-path="url(#I27)" fill="#F70000" d="M72.45,73.22H14.57c-0.03-0.01-0.06-0.02-0.1-0.02h58.08 C72.52,73.21,72.49,73.22,72.45,73.22"/><path clip-path="url(#I27)" fill="#FF0000" d="M72.55,73.2H14.47c-0.06-0.01-0.12-0.03-0.18-0.05h58.44 C72.67,73.17,72.61,73.19,72.55,73.2"/><path clip-path="url(#I27)" fill="#FD2313" d="M72.73,73.15H14.29c-0.06-0.02-0.12-0.03-0.17-0.05h58.79 C72.85,73.12,72.79,73.14,72.73,73.15"/><path clip-path="url(#I27)" fill="#FD2F1B" d="M72.91,73.11H14.12c-0.06-0.01-0.12-0.03-0.18-0.05h59.14 C73.03,73.08,72.97,73.1,72.91,73.11"/><path clip-path="url(#I27)" fill="#FC3C24" d="M73.08,73.06l-59.14,0c-0.06-0.02-0.12-0.03-0.18-0.04h59.49 C73.2,73.03,73.14,73.04,73.08,73.06"/><path clip-path="url(#I27)" fill="#FC432A" d="M73.26,73.02H13.77c-0.07-0.02-0.14-0.04-0.21-0.06h59.91 C73.4,72.98,73.33,73,73.26,73.02"/><path clip-path="url(#I27)" fill="#FC4B30" d="M73.47,72.96H13.56c-0.07-0.01-0.15-0.04-0.22-0.06h60.35 C73.62,72.92,73.54,72.95,73.47,72.96"/><path clip-path="url(#I27)" fill="#FC5336" d="M73.69,72.9H13.34c-0.07-0.02-0.15-0.03-0.22-0.05h60.79 C73.83,72.87,73.76,72.89,73.69,72.9"/><path clip-path="url(#I27)" fill="#FC583A" d="M73.91,72.85H13.12c-0.08-0.02-0.15-0.04-0.22-0.06h61.23 C74.05,72.81,73.98,72.83,73.91,72.85"/><path clip-path="url(#I27)" fill="#FC5F40" d="M74.13,72.79H12.9c-0.16-0.04-0.31-0.08-0.47-0.12H74.6 C74.44,72.71,74.28,72.75,74.13,72.79"/><path clip-path="url(#I27)" fill="#FC6445" d="M74.6,72.67H12.43c-0.37-0.1-0.74-0.19-1.09-0.28h64.35 C75.33,72.48,74.97,72.58,74.6,72.67"/><path clip-path="url(#I27)" fill="#FC5F40" d="M75.69,72.39H11.34c-0.12-0.03-0.24-0.06-0.36-0.09h65.07 C75.93,72.33,75.81,72.36,75.69,72.39"/><path clip-path="url(#I27)" fill="#FC583A" d="M76.05,72.3H10.98c-0.1-0.02-0.19-0.05-0.29-0.07h65.65 C76.24,72.25,76.14,72.27,76.05,72.3"/><path clip-path="url(#I27)" fill="#FC5336" d="M76.34,72.23H10.69c-0.09-0.03-0.18-0.05-0.27-0.07h66.19 C76.52,72.18,76.43,72.2,76.34,72.23"/><path clip-path="url(#I27)" fill="#FC4B30" d="M76.61,72.15H10.42c-0.08-0.02-0.15-0.03-0.23-0.05h66.64 C76.76,72.12,76.68,72.13,76.61,72.15"/><path clip-path="url(#I27)" fill="#FC432A" d="M76.83,72.1H10.19c-0.07-0.02-0.15-0.04-0.22-0.06h67.08 C76.98,72.06,76.9,72.08,76.83,72.1"/><path clip-path="url(#I27)" fill="#FC3C24" d="M77.05,72.04H9.97C9.9,72.02,9.83,72,9.75,71.99h67.52 C77.2,72,77.12,72.02,77.05,72.04"/><path clip-path="url(#I27)" fill="#FD2F1B" d="M77.27,71.99H9.75c-0.08-0.02-0.15-0.04-0.23-0.06H77.5 C77.43,71.95,77.34,71.97,77.27,71.99"/><path clip-path="url(#I27)" fill="#FD2313" d="M77.5,71.93H9.53c-0.08-0.02-0.16-0.04-0.23-0.06h68.44 C77.66,71.88,77.58,71.9,77.5,71.93"/><path clip-path="url(#I27)" fill="#FF0000" d="M77.73,71.87H9.29c-0.08-0.02-0.15-0.04-0.23-0.06h68.89 C77.89,71.83,77.81,71.85,77.73,71.87"/><path clip-path="url(#I27)" fill="#F70000" d="M77.96,71.81H9.07c-0.09-0.03-0.19-0.05-0.28-0.08h69.44 C78.14,71.76,78.05,71.78,77.96,71.81"/><path clip-path="url(#I27)" fill="#F00000" d="M78.23,71.73H8.79c-0.09-0.02-0.19-0.04-0.28-0.07h70.01 C78.43,71.69,78.33,71.71,78.23,71.73"/><path clip-path="url(#I27)" fill="#E80000" d="M78.52,71.66H8.51c-0.11-0.03-0.22-0.05-0.32-0.08h70.65 C78.73,71.61,78.63,71.63,78.52,71.66"/><path clip-path="url(#I27)" fill="#E00000" d="M78.84,71.58H8.18c-0.13-0.04-0.25-0.06-0.38-0.1h71.4 C79.09,71.52,78.97,71.55,78.84,71.58"/><path clip-path="url(#I27)" fill="#DB0000" d="M79.21,71.48H7.81c-0.15-0.04-0.29-0.08-0.44-0.12h72.28 C79.51,71.41,79.36,71.44,79.21,71.48"/><path clip-path="url(#I27)" fill="#D10000" d="M79.66,71.37H7.37c-0.16-0.04-0.32-0.08-0.47-0.12h73.22 C79.97,71.29,79.82,71.33,79.66,71.37"/><path clip-path="url(#I27)" fill="#C90000" d="M80.12,71.25H6.9c-0.16-0.04-0.31-0.08-0.46-0.12h74.14 C80.44,71.17,80.28,71.21,80.12,71.25"/><path clip-path="url(#I27)" fill="#C20000" d="M80.59,71.13H6.44c-0.14-0.04-0.28-0.07-0.41-0.11H81 C80.86,71.06,80.73,71.09,80.59,71.13"/><path clip-path="url(#I27)" fill="#BA0000" d="M81,71.02H6.03c-0.12-0.03-0.24-0.06-0.35-0.08h75.67 C81.24,70.96,81.12,70.99,81,71.02"/><path clip-path="url(#I27)" fill="#B20000" d="M81.35,70.94H5.68c-0.1-0.03-0.21-0.06-0.3-0.08h76.28 C81.56,70.88,81.46,70.91,81.35,70.94"/><path clip-path="url(#I27)" fill="#AB0000" d="M81.65,70.86H5.38c-0.09-0.02-0.18-0.05-0.26-0.07h76.81 C81.83,70.81,81.74,70.83,81.65,70.86"/><path clip-path="url(#I27)" fill="#A30000" d="M81.92,70.79H5.11c-0.08-0.03-0.16-0.04-0.23-0.06h77.26 C82.07,70.75,82,70.77,81.92,70.79"/><path clip-path="url(#I27)" fill="#9C0000" d="M82.14,70.73H4.88c-0.07-0.02-0.14-0.04-0.2-0.05h77.65 C82.28,70.69,82.21,70.71,82.14,70.73"/><path clip-path="url(#I27)" fill="#940000" d="M82.34,70.68H4.69c-0.06-0.01-0.12-0.03-0.17-0.04h77.99 C82.46,70.65,82.4,70.67,82.34,70.68"/><path clip-path="url(#I27)" fill="#8F0000" d="M82.51,70.64H4.51c-0.05-0.01-0.1-0.03-0.14-0.04h78.28 C82.61,70.61,82.57,70.62,82.51,70.64"/><path clip-path="url(#I27)" fill="#850000" d="M82.65,70.6H4.37c-0.04-0.01-0.08-0.02-0.12-0.03h78.52 C82.74,70.58,82.7,70.58,82.65,70.6"/><path clip-path="url(#I27)" fill="#7D0000" d="M82.77,70.57H4.25c-0.04-0.01-0.07-0.02-0.1-0.03h78.72 C82.85,70.55,82.81,70.56,82.77,70.57"/><path clip-path="url(#I27)" fill="#750000" d="M82.87,70.54H4.16c-0.03-0.01-0.05-0.01-0.07-0.02h78.86 C82.92,70.53,82.9,70.53,82.87,70.54"/><path clip-path="url(#I27)" fill="#6E0000" d="M82.94,70.52H4.08c-0.02,0-0.03-0.01-0.04-0.01h78.94 C82.97,70.52,82.96,70.52,82.94,70.52"/><path clip-path="url(#I27)" fill="#660000" d="M82.98,70.51H4.04c-0.01,0-0.01,0-0.01,0L82.98,70.51 C82.99,70.51,82.99,70.51,82.98,70.51"/></g><g><defs><path id="I1" d="M43.52,89.29c0,1.73,0,3.13,0,3.13L4.03,70.51c0,0,4.72,1.21,10.54,2.71L43.52,89.29z"/></defs><use xlink:href="#I1" overflow="visible" fill="#FF0000"/><clipPath id="I28"><use xlink:href="#I1" overflow="visible"/></clipPath><path clip-path="url(#I28)" fill="#F70000" d="M14.57,73.22l28.94,16.07c0,0,0,0.01,0,0.01l-29-16.09 C14.53,73.22,14.55,73.22,14.57,73.22"/><path clip-path="url(#I28)" fill="#F00000" d="M14.51,73.21l29,16.09c0,0.02,0,0.03,0,0.05L14.37,73.17 C14.42,73.19,14.46,73.2,14.51,73.21"/><path clip-path="url(#I28)" fill="#E80000" d="M14.37,73.17l29.15,16.18c0,0.01,0,0.03,0,0.05L14.22,73.14 C14.27,73.15,14.32,73.16,14.37,73.17"/><path clip-path="url(#I28)" fill="#E00000" d="M14.22,73.14L43.52,89.4c0,0.01,0,0.02,0,0.04L14.08,73.1 C14.13,73.11,14.18,73.12,14.22,73.14"/><path clip-path="url(#I28)" fill="#DB0000" d="M14.08,73.1l29.43,16.33c0,0.02,0,0.03,0,0.04L13.94,73.06 C13.99,73.08,14.03,73.09,14.08,73.1"/><path clip-path="url(#I28)" fill="#D10000" d="M13.94,73.06l29.58,16.42c0,0.01,0,0.03,0,0.04L13.8,73.03 C13.84,73.04,13.89,73.05,13.94,73.06"/><path clip-path="url(#I28)" fill="#C90000" d="M13.8,73.03l29.72,16.49c0,0.01,0,0.03,0,0.05L13.63,72.98 C13.69,73,13.74,73.01,13.8,73.03"/><path clip-path="url(#I28)" fill="#C20000" d="M13.63,72.98l29.88,16.58c0,0.03,0,0.04,0,0.06l-30.08-16.7 C13.5,72.95,13.57,72.97,13.63,72.98"/><path clip-path="url(#I28)" fill="#BA0000" d="M13.43,72.93l30.08,16.7c0,0.02,0,0.04,0,0.06L13.23,72.88 C13.3,72.9,13.36,72.91,13.43,72.93"/><path clip-path="url(#I28)" fill="#B20000" d="M13.23,72.88l30.29,16.81c0,0.03,0,0.04,0,0.06L13.03,72.83 C13.09,72.85,13.16,72.86,13.23,72.88"/><path clip-path="url(#I28)" fill="#AB0000" d="M13.03,72.83l30.49,16.92c0,0.02,0,0.04,0,0.06l-30.7-17.04 C12.89,72.79,12.96,72.81,13.03,72.83"/><path clip-path="url(#I28)" fill="#A30000" d="M12.81,72.77l30.7,17.04c0,0.03,0,0.06,0,0.09L12.52,72.7 C12.62,72.72,12.72,72.75,12.81,72.77"/><path clip-path="url(#I28)" fill="#9C0000" d="M12.52,72.7l30.99,17.2c0,0.03,0,0.05,0,0.08L12.24,72.62 C12.33,72.65,12.43,72.67,12.52,72.7"/><path clip-path="url(#I28)" fill="#940000" d="M12.24,72.62l31.28,17.36c0,0.03,0,0.06,0,0.09L11.93,72.54 C12.03,72.57,12.13,72.6,12.24,72.62"/><path clip-path="url(#I28)" fill="#8F0000" d="M11.93,72.54l31.59,17.53c0,0.04,0,0.08,0,0.11L11.56,72.45 C11.68,72.48,11.8,72.51,11.93,72.54"/><path clip-path="url(#I28)" fill="#850000" d="M11.56,72.45l31.96,17.73c0,0.04,0,0.08,0,0.12L11.18,72.35 C11.3,72.38,11.43,72.42,11.56,72.45"/><path clip-path="url(#I28)" fill="#7D0000" d="M11.18,72.35L43.52,90.3c0,0.04,0,0.08,0,0.12L10.75,72.24 C10.89,72.27,11.03,72.31,11.18,72.35"/><path clip-path="url(#I28)" fill="#750000" d="M10.75,72.24l32.76,18.18c0,0.05,0,0.09,0,0.13l-33.2-18.43 C10.46,72.16,10.6,72.2,10.75,72.24"/><path clip-path="url(#I28)" fill="#6E0000" d="M10.31,72.13l33.2,18.43c0,0.05,0,0.1,0,0.13L9.85,72.01 C10,72.05,10.16,72.09,10.31,72.13"/><path clip-path="url(#I28)" fill="#660000" d="M9.85,72.01l33.67,18.68c0,0.05,0,0.1,0,0.15L9.35,71.88 C9.51,71.92,9.68,71.97,9.85,72.01"/><path clip-path="url(#I28)" fill="#5E0000" d="M9.35,71.88l34.17,18.96c0,0.06,0,0.11,0,0.16L8.82,71.74 C8.99,71.79,9.17,71.83,9.35,71.88"/><path clip-path="url(#I28)" fill="#570000" d="M8.82,71.74L43.52,91c0,0.06,0,0.12,0,0.17L8.23,71.59 C8.42,71.64,8.62,71.7,8.82,71.74"/><path clip-path="url(#I28)" fill="#4F0000" d="M8.23,71.59l35.29,19.58c0,0.08,0,0.15,0,0.21L7.51,71.4 C7.74,71.46,7.98,71.53,8.23,71.59"/><path clip-path="url(#I28)" fill="#470000" d="M7.51,71.4l36.01,19.99c0,0.64,0,1.04,0,1.04L4.03,70.51 C4.03,70.51,5.38,70.85,7.51,71.4"/></g><path fill="#FFFFFF" d="M21.29,27.67h1.1c0.03,0.45,0.14,0.81,0.35,1.09c0.39,0.52,1.07,0.78,2.05,0.78c0.44,0,0.84-0.06,1.2-0.17 c0.7-0.22,1.04-0.62,1.04-1.19c0-0.43-0.15-0.74-0.44-0.92c-0.3-0.18-0.76-0.33-1.4-0.46l-1.17-0.24c-0.76-0.15-1.3-0.33-1.62-0.52 c-0.55-0.33-0.82-0.82-0.82-1.47c0-0.71,0.27-1.29,0.8-1.74c0.53-0.45,1.29-0.68,2.28-0.68c0.9,0,1.67,0.2,2.3,0.6 c0.63,0.4,0.95,1.03,0.95,1.91h-1.1c-0.06-0.42-0.19-0.75-0.38-0.97c-0.36-0.41-0.96-0.62-1.81-0.62c-0.69,0-1.18,0.13-1.48,0.4 c-0.3,0.26-0.45,0.57-0.45,0.92c0,0.38,0.18,0.67,0.53,0.85c0.23,0.11,0.75,0.26,1.57,0.43l1.21,0.25c0.58,0.12,1.03,0.29,1.35,0.5 c0.55,0.37,0.82,0.9,0.82,1.6c0,0.87-0.35,1.49-1.04,1.87c-0.69,0.38-1.5,0.56-2.42,0.56c-1.07,0-1.91-0.25-2.52-0.75 C21.58,29.2,21.28,28.52,21.29,27.67z"/><path fill="#FFFFFF" d="M29.97,25.21c-0.55,0.58-0.82,1.32-0.82,2.24c0,0.94,0.27,1.66,0.82,2.18c0.54,0.52,1.21,0.78,1.99,0.78 c0.32,0,0.61-0.03,0.86-0.09c0.47-0.1,0.87-0.29,1.19-0.58c0.19-0.17,0.37-0.38,0.52-0.64c0.16-0.26,0.24-0.49,0.27-0.7h-1.04 c-0.08,0.25-0.21,0.48-0.4,0.67c-0.33,0.33-0.77,0.5-1.32,0.5c-0.59,0-1.03-0.17-1.31-0.53c-0.28-0.35-0.43-0.82-0.45-1.4h4.6 c0-0.58-0.03-1-0.09-1.26c-0.07-0.39-0.21-0.73-0.42-1.01c-0.22-0.3-0.54-0.55-0.96-0.74c-0.42-0.19-0.85-0.29-1.3-0.29 C31.23,24.35,30.52,24.64,29.97,25.21z M30.83,25.67c0.33-0.32,0.73-0.48,1.22-0.48c0.68,0,1.16,0.23,1.45,0.7 c0.16,0.25,0.26,0.58,0.3,1h-3.49C30.33,26.39,30.5,25.99,30.83,25.67z"/><path fill="#FFFFFF" d="M38.84,24.31c0.71,0,1.29,0.16,1.73,0.47c0.44,0.32,0.71,0.86,0.8,1.62h-1.03 c-0.06-0.35-0.21-0.64-0.43-0.88c-0.22-0.23-0.58-0.35-1.08-0.35c-0.67,0-1.15,0.3-1.44,0.9c-0.19,0.39-0.28,0.87-0.28,1.44 c0,0.58,0.13,1.06,0.4,1.45c0.26,0.39,0.68,0.59,1.25,0.59c0.44,0,0.79-0.12,1.04-0.37c0.26-0.24,0.44-0.58,0.53-1h1.03 c-0.12,0.76-0.41,1.32-0.88,1.67c-0.47,0.35-1.07,0.53-1.8,0.53c-0.82,0-1.48-0.27-1.96-0.82c-0.49-0.55-0.74-1.24-0.74-2.05 c0-1.01,0.27-1.79,0.81-2.35C37.33,24.59,38.01,24.31,38.84,24.31z"/><path fill="#FFFFFF" d="M42.64,24.48h1.09v3.81c0,0.29,0.05,0.53,0.15,0.72c0.19,0.34,0.54,0.51,1.05,0.51c0.74,0,1.24-0.3,1.5-0.9 c0.14-0.32,0.22-0.76,0.22-1.32v-2.82h1.05v5.74h-1l0.02-0.85c-0.14,0.22-0.31,0.4-0.51,0.55c-0.4,0.3-0.89,0.45-1.46,0.45 c-0.9,0-1.51-0.27-1.83-0.82c-0.18-0.29-0.26-0.68-0.26-1.17V24.48z"/><path fill="#FFFFFF" d="M49.37,30.21v-5.74h1.01v0.99c0.08-0.19,0.29-0.43,0.6-0.71c0.32-0.28,0.7-0.41,1.11-0.41 c0.02,0,0.05,0,0.1,0c0.05,0.01,0.13,0.01,0.24,0.02v1.02c-0.07-0.01-0.12-0.02-0.18-0.02c-0.05,0-0.11,0-0.18,0 c-0.52,0-0.94,0.16-1.23,0.47c-0.28,0.31-0.42,0.67-0.42,1.08v3.3H49.37z"/><path fill="#FFFFFF" d="M53.81,25.21c-0.55,0.58-0.82,1.32-0.82,2.24c0,0.94,0.27,1.66,0.81,2.18c0.54,0.52,1.21,0.78,1.99,0.78 c0.32,0,0.61-0.03,0.86-0.09c0.47-0.1,0.87-0.29,1.19-0.58c0.19-0.17,0.36-0.38,0.52-0.64c0.15-0.26,0.25-0.49,0.28-0.7H57.6 c-0.08,0.25-0.21,0.48-0.4,0.67c-0.33,0.33-0.77,0.5-1.32,0.5c-0.59,0-1.02-0.17-1.31-0.53c-0.28-0.35-0.44-0.82-0.45-1.4h4.61 c0-0.58-0.04-1-0.1-1.26c-0.07-0.39-0.21-0.73-0.42-1.01c-0.22-0.3-0.54-0.55-0.96-0.74c-0.42-0.19-0.85-0.29-1.29-0.29 C55.08,24.35,54.36,24.64,53.81,25.21z M54.67,25.67c0.33-0.32,0.73-0.48,1.22-0.48c0.68,0,1.16,0.23,1.45,0.7 c0.15,0.25,0.25,0.58,0.3,1h-3.49C54.17,26.39,54.34,25.99,54.67,25.67z"/><path fill="#FFFFFF" d="M60.51,25.29c-0.47,0.61-0.7,1.34-0.7,2.17c0,0.89,0.25,1.61,0.77,2.14c0.51,0.54,1.12,0.81,1.82,0.81 c0.43,0,0.81-0.08,1.15-0.23c0.34-0.16,0.63-0.41,0.87-0.77v0.8h0.95v-7.9h-1.01v2.9c-0.24-0.26-0.45-0.45-0.64-0.56 c-0.32-0.19-0.73-0.28-1.21-0.28C61.65,24.37,60.98,24.68,60.51,25.29z M61.42,25.77c0.33-0.37,0.76-0.56,1.29-0.56 c0.48,0,0.88,0.18,1.2,0.52c0.32,0.35,0.49,0.88,0.49,1.61c0,0.72-0.16,1.27-0.47,1.65c-0.31,0.38-0.72,0.58-1.2,0.58 c-0.63,0-1.08-0.2-1.37-0.62c-0.29-0.41-0.43-0.93-0.43-1.54C60.93,26.69,61.09,26.14,61.42,25.77z"/><path fill="#FFFFFF" d="M38.64,40.08v-0.73c0.22,0.28,0.43,0.47,0.63,0.6c0.33,0.21,0.73,0.32,1.21,0.32c0.85,0,1.52-0.3,2-0.9 c0.48-0.6,0.72-1.35,0.72-2.26c0-0.96-0.24-1.68-0.73-2.17c-0.49-0.49-1.12-0.74-1.9-0.74c-0.38,0-0.72,0.07-1.04,0.21 c-0.33,0.15-0.6,0.36-0.83,0.63v-2.86h-1.02v7.9H38.64z M38.86,38.46c-0.15-0.33-0.22-0.77-0.22-1.31c0-0.75,0.18-1.28,0.54-1.61 c0.36-0.33,0.79-0.49,1.27-0.49c0.55,0,0.97,0.2,1.25,0.6c0.28,0.4,0.42,0.9,0.42,1.5c0,0.68-0.14,1.22-0.42,1.64 c-0.28,0.41-0.71,0.62-1.28,0.62C39.65,39.41,39.14,39.09,38.86,38.46z"/><path fill="#FFFFFF" d="M46.9,39.01l1.69-4.67h1.17c-0.15,0.37-0.48,1.21-0.99,2.52c-0.38,0.98-0.71,1.79-0.96,2.41 c-0.61,1.46-1.04,2.35-1.29,2.67c-0.25,0.32-0.69,0.48-1.29,0.48c-0.16,0-0.27-0.01-0.35-0.02c-0.08-0.01-0.18-0.03-0.3-0.06v-0.88 c0.18,0.05,0.32,0.07,0.4,0.09c0.08,0.01,0.15,0.01,0.21,0.01c0.2,0,0.35-0.03,0.43-0.09c0.09-0.06,0.17-0.13,0.23-0.22 c0.02-0.03,0.09-0.18,0.21-0.44c0.12-0.26,0.21-0.46,0.26-0.59l-2.32-5.9h1.2L46.9,39.01z"/><polygon fill="#0E3192" points="74.61,50.3 70.4,58.12 66.42,50.3 62.24,50.3 70.53,66.42 75.14,57.62 75.14,66.49 79.08,66.49 79.08,50.3"/><path fill="#0E3192" d="M12.42,50.14c-2.83,0-4.36,2.66-4.36,3.87v2.83c0,0,0.56,1.32,1.44,1.88c0.87,0.55,1.54,0.78,2.5,0.78 c0.96,0,3.25,0,3.25,0s0.95-0.16,1.56,0.96l0.04,1.74c0,0-0.45,0.75-0.72,0.73c-0.27-0.02-7.73,0-7.73,0v3.44h8.91 c1.01-0.29,3.19-1.16,3.19-2.69c0,0,0.17-0.62,0.09-1.25c-0.08-0.64,0.15-2.19-0.16-3.29c-0.3-1.1-0.84-2.08-2.76-2.83l-4.63-0.12 c0,0-0.9,0-1.08-0.4c-0.18-0.4-0.24-1.27-0.12-1.62c0.12-0.35,0.84-0.58,1.44-0.58s6.62,0,6.62,0v-3.47H12.42"/><path fill="#0E3192" d="M55.6,63.38c2.86,0,5.18-2.23,5.18-4.99c0-2.75-2.32-4.99-5.18-4.99c-2.87,0-5.19,2.23-5.19,4.99 C50.41,61.15,52.73,63.38,55.6,63.38z M46.58,58.4c0-4.79,4.03-8.67,9.02-8.67c4.97,0,9.01,3.88,9.01,8.67 c0,4.79-4.04,8.66-9.01,8.66C50.61,67.06,46.58,63.18,46.58,58.4z"/><path fill="#00968D" d="M47.5,53.52c0.44-0.66,1.14-1.45,1.14-1.45c-1.77-1.51-4.02-2.34-6.45-2.34c-4.98,0-9.01,3.88-9.01,8.67 c0,4.79,4.04,8.66,9.01,8.66c2.43,0,4.67-0.83,6.45-2.33c0,0-0.46-0.46-1.03-1.27c-0.56-0.81-0.94-1.77-0.94-1.77l-0.06-0.02 c-1.18,1.12-2.86,1.77-4.49,1.77c-2.86,0-5.19-2.29-5.19-5.05c0-2.75,2.33-5.04,5.19-5.04c1.66,0,3.31,0.68,4.49,1.85 C46.62,55.2,47.06,54.17,47.5,53.52z"/><rect x="21.2" y="50.3" fill="#0E3192" width="11.22" height="3.44"/><polygon fill="#0E3192" points="32.42,59.64 32.42,56.2 25.01,56.2 21.2,56.2 21.2,59.64 21.2,63.11 21.2,66.51 21.2,66.55 32.42,66.55 32.42,63.11 25.01,63.11 25.01,59.64"/><polygon fill="#A7A7A7" points="86.86,72.72 86,72.12 86.06,24.52 86.86,24.52"/><polygon fill="#A7A7A7" points="0.92,25.1 0.08,24.57 43.49,0.37 43.45,1.45"/></svg> 