<?xml version="1.0" encoding="UTF-8" standalone="no"?>
<!DOCTYPE svg PUBLIC "-//W3C//DTD SVG 1.1//EN" "http://www.w3.org/Graphics/SVG/1.1/DTD/svg11.dtd">
<svg width="100%" height="100%" viewBox="0 0 2197 591" version="1.1" xmlns="http://www.w3.org/2000/svg" xmlns:xlink="http://www.w3.org/1999/xlink" xml:space="preserve" xmlns:serif="http://www.serif.com/" style="fill-rule:evenodd;clip-rule:evenodd;stroke-linejoin:round;stroke-miterlimit:2;">
    <g transform="matrix(1,0,0,1,-2297,0)">
        <g id="TAPPOY_LOGO_W" transform="matrix(3.33361,0,0,1.92362,-553.238,-1681.24)">
            <rect x="855" y="874" width="659" height="307" style="fill:rgb(218,55,55);fill-opacity:0;"/>
            <g transform="matrix(0.299975,0,0,0.527227,809.672,543.088)">
                <path d="M718,1035.25L966.031,1035.71L966.031,1175L912.882,1175L912.882,1122.59L859.732,1122.59L859.732,1175L718,1175L718,1035.25ZM859.843,1053.27L859.843,1105.68L912.992,1105.68L912.992,1053.27L859.843,1053.27Z" style="fill:white;"/>
            </g>
            <g transform="matrix(0.299975,0,0,0.527227,1054.14,543.088)">
                <path d="M718,1035.25L966.031,1035.71L966.031,1175L718,1175L718,1035.25ZM859.843,1053.27L859.843,1105.68L912.992,1105.68L912.992,1053.27L859.843,1053.27Z" style="fill:white;"/>
            </g>
            <g transform="matrix(0.299975,0,0,0.527227,891.228,543.088)">
                <path d="M718,930.437L966.039,930.437L966.039,1122.59L859.732,1122.59L859.732,1175L718,1175L718,930.437ZM859.843,1053.27L859.843,1105.68L912.992,1105.68L912.992,1053.27L859.843,1053.27Z" style="fill:white;"/>
            </g>
            <g transform="matrix(0.299975,0,0,0.519853,843.074,550.713)">
                <path d="M1835,1035.27L1835,1177L2071.22,1177L2071.22,1035.27L2213.02,1035.27L2212.95,657.315L2071.22,657.315L2071.23,893.535L1835.01,893.535L1835.01,657.315L1693.27,657.315L1693.27,1035.27L1835,1035.27Z" style="fill:white;"/>
            </g>
            <g transform="matrix(0.299975,0,0,0.527227,972.785,543.088)">
                <path d="M718,930.437L966.039,930.437L966.039,1122.59L859.732,1122.59L859.732,1175L718,1175L718,930.437ZM859.843,1053.27L859.843,1105.68L912.992,1105.68L912.992,1053.27L859.843,1053.27Z" style="fill:white;"/>
            </g>
            <g transform="matrix(0.299975,0,0,0.519853,666.412,653.263)">
                <path d="M652.268,460.512L1171.73,460.047L1171.73,838L1030,838L1030,979.732L794,979.732L794,838L652.268,838L652.268,460.512Z" style="fill:white;"/>
            </g>
        </g>
    </g>
</svg>
